<?xml version="1.0" encoding="UTF-8"?>
<svg viewBox="0 0 124 24" xmlns="http://www.w3.org/2000/svg">
    <path d="M22.0362 21.8846H11.0181C4.9329 21.8846 0 16.9857 0 10.9423C0 4.89912 4.9329 0 11.0181 0C17.1032 0 22.0362 4.89912 22.0362 10.9423V21.8846Z" clip-rule="evenodd" fill="#02C5AB" fill-rule="evenodd"/>
    <path d="m17.113 12.812c-0.3078 0.0581-1.5044 0.2343-2.081 0.1294-0.2553-0.0471-0.3083-0.3202-0.1972-0.4624 0.4714-0.6109 1.8448-1.856 2.3103-1.6795 0.4028 0.1522 0.7278 1.869-0.0321 2.0125zm-9.9629-3.2495c-0.14583-0.0298-0.41541-0.19624-0.27222-0.606 0.00264-0.00726 0.00497-0.01405 0.00668-0.01992 0.19045-0.50024 0.95611-2.0704 1.5211-2.1516 0.03794-0.00571 6.2284-0.00571 6.2668 0 0.5648 0.08121 1.3306 1.6514 1.5206 2.1516 0.0017 0.00587 4e-3 0.01266 0.0067 0.01992 0.1427 0.40976-0.1266 0.5762-0.2729 0.606-0.5783 0.11703-8.1973 0.11703-8.7767 0zm0.89579 3.3789c-0.57616 0.1049-1.7731-0.0713-2.0811-0.1294-0.75944-0.1435-0.43483-1.8603-0.03187-2.0125 0.46547-0.1765 1.8388 1.0686 2.3102 1.6795 0.11163 0.1422 0.05815 0.4153-0.19728 0.4624zm10.808-4.5201c-0.2084-0.22557-0.9277-0.23622-1.3283-0.09634-0.0969 0.03366-0.2026 0.10792-0.3206 0.24642-0.1121 0.13123-0.1876 0.23128-0.2696 0.30694-0.0158-0.03582-0.0284-0.06794-0.0396-0.09465-0.262-0.6341-1.3254-2.6233-2.11-2.7266-0.2565-0.0332-6.2365-0.0332-6.4939 0-0.7837 0.10329-1.8462 2.0925-2.11 2.7266-0.0112 0.02671-0.02348 0.05898-0.03965 0.09495-0.08146-0.0758-0.15748-0.17601-0.26911-0.30724-0.118-0.1385-0.22387-0.21276-0.32057-0.24642-0.40063-0.13988-1.12-0.12923-1.3283 0.09634-0.1693 0.18281-0.32741 0.58455 0.15966 0.79885 0.26429 0.11626 0.70768 0.23174 1.1152 0.32392-0.59885 0.54529-1.4141 1.6551-0.86578 3.5455 9.3e-4 0.042 0.0014 2.9732 0.0014 2.9732 0 0.1702 0.14769 0.3074 0.32958 0.3074h2.0792c0.17335 0 0.31373-0.1242 0.32772-0.2825v-0.7854h8.3294l4e-3 0.7605c0 0.1702 0.1491 0.3074 0.3299 0.3074h2.0793c0.1824 0 0.3309-0.1372 0.3309-0.3074 0 0 0-2.9312 4e-4 -2.9732 0.5484-1.8905-0.2674-3.0003-0.8661-3.5456 0.4075-0.09202 0.8504-0.2075 1.1152-0.32376 0.4869-0.2143 0.329-0.61604 0.1597-0.79885z" clip-rule="evenodd" fill="#fff" fill-rule="evenodd"/>
    <path d="m70.864 6.6243c-3.4097 0-6.1736 2.745-6.1736 6.1309 0 3.3859 2.7639 6.1308 6.1736 6.1308 3.4093 0 6.1732-2.7449 6.1732-6.1308 0-3.3859-2.7639-6.1309-6.1732-6.1309zm0 2.5593c1.9831 0 3.5963 1.6022 3.5963 3.5716 0 1.9695-1.6132 3.5717-3.5963 3.5717s-3.5966-1.6022-3.5966-3.5717c0-1.9694 1.6135-3.5716 3.5966-3.5716z" clip-rule="evenodd" fill="#1A1A1A" fill-rule="evenodd"/>
    <path d="m109.46 6.6243c-3.409 0-6.173 2.745-6.173 6.1309 0 3.3859 2.764 6.1308 6.173 6.1308 3.41 0 6.173-2.7449 6.173-6.1308 0-3.3859-2.763-6.1309-6.173-6.1309zm0 2.5593c1.983 0 3.596 1.6022 3.596 3.5716 0 1.9695-1.613 3.5717-3.596 3.5717s-3.597-1.6022-3.597-3.5717c0-1.9694 1.614-3.5716 3.597-3.5716z" clip-rule="evenodd" fill="#02C5AB" fill-rule="evenodd"/>
    <path d="m61.69 16.13c-0.613 0-1.111-0.4954-1.111-1.1042v-6.1444h2.67v-2.0101h-2.67v-2.5884h-2.5776v2.5884h-2.0473v2.0101h2.0473v6.1444c0 2.0199 1.6556 3.6641 3.6886 3.6641h1.8747v-2.5599h-1.8747z" clip-rule="evenodd" fill="#1A1A1A" fill-rule="evenodd"/>
    <path d="m121.5 16.13c-0.612 0-1.11-0.4954-1.11-1.1042v-6.1444h2.67v-2.0101h-2.67v-2.5884h-2.578v2.5884h-2.047v2.0101h2.047v6.1444c0 2.0199 1.656 3.6641 3.688 3.6641h1.875v-2.5599h-1.875z" clip-rule="evenodd" fill="#02C5AB" fill-rule="evenodd"/>
    <path d="m95.98 16.049h-3.5673v-0.6302c0-2.9354 0.0241-3.7642 0.6848-4.6888 0.6189-0.92996 1.6784-1.5465 2.8825-1.5465 1.906 0 3.4566 1.5401 3.4566 3.4329 0 1.8925-1.5506 3.4326-3.4566 3.4326zm0-9.4244c-3.3321 0-6.0335 2.6826-6.0335 5.9918v11.384h2.4662v-5.392h3.5673c3.3322 0 6.0335-2.6826 6.0335-5.9917 0-3.3092-2.7013-5.9918-6.0335-5.9918z" clip-rule="evenodd" fill="#02C5AB" fill-rule="evenodd"/>
    <path d="m83.603 11.559c-2.1734-0.4127-2.5347-0.7101-2.5167-1.2116 0.0053-0.1429 0.0258-0.60952 0.734-0.95336 1.4256-0.69247 3.9775-0.33797 5.3265 0.56663l1.2008-2.2607c-2.1311-1.2773-5.4702-1.5458-7.6389-0.52031-1.3678 0.64707-2.1479 1.7396-2.1964 3.0757-0.1043 2.8901 2.7456 3.2882 4.6305 3.6546 0.442 0.0866 0.8145 0.173 1.1357 0.2633 0.0178 5e-3 0.0381 0.0101 0.0555 0.015 0.9631 0.2778 1.3834 0.5995 1.3922 1.0982 0 0.0132-0.0011 0.0261-0.0014 0.0391-0.0167 0.3326-0.3444 0.5838-0.834 0.7511-0.1319 0.0448-0.2708 0.0819-0.4146 0.1135-0.1163 0.0256-0.2368 0.0477-0.3617 0.0661-0.168 0.0239-0.3373 0.0459-0.5131 0.0556-0.0763 0.0051-0.1544 0.0051-0.2316 0.0079-1.6086 0.0399-3.3954-0.4253-3.9266-0.8878v3e-4l-1.4101 2.1365c1.1122 0.7772 3.1196 1.3076 5.0537 1.3076 1.0589 0 2.0697-0.0511 2.9145-0.4126 1.4399-0.6149 2.2754-1.7074 2.3396-3.1512 0.1199-2.6963-2.6228-3.3524-4.7379-3.7536z" clip-rule="evenodd" fill="#02C5AB" fill-rule="evenodd"/>
    <path d="m52.032 6.8717v6.5218h-0.0039l-3e-4 3e-4h0.0042c0 1.6647-1.3638 3.0191-3.0403 3.0191-1.6762 0-3.04-1.3544-3.04-3.0191h0.0042l-3e-4 -3e-4h-0.0039v-6.5218h-2.5768v6.5221c0 3.0808 2.5147 5.5783 5.6168 5.5783 3.1023 0 5.6171-2.4975 5.6171-5.5783v-6.5221h-2.5768z" clip-rule="evenodd" fill="#1A1A1A" fill-rule="evenodd"/>
    <path d="m39.464 16.14h-0.129v0.0011h-3.377c-1.862 0-3.3768-1.5046-3.3768-3.3538 0-1.8494 1.5148-3.3538 3.3768-3.3538 0.5897 0 1.1441 0.15177 1.6271 0.41671 1.5517 0.80747 1.8789 1.955 1.8789 3.5142v2.7756zm-3.506-9.2651c-3.2879 0-5.9532 2.6471-5.9532 5.9124 0 3.2653 2.6653 5.9123 5.9532 5.9123h5.9532v-5.9123c0-3.2653-2.6654-5.9124-5.9532-5.9124z" clip-rule="evenodd" fill="#1A1A1A" fill-rule="evenodd"/>
</svg>