<svg xmlns="http://www.w3.org/2000/svg">

  <symbol id="icon-check" viewBox="0 0 20 20">
    <path xmlns="http://www.w3.org/2000/svg" d="M5.74741 10.8356C5.38049 10.4229 4.74842 10.3857 4.33564 10.7526C3.92285 11.1195 3.88567 11.7516 4.25259 12.1644L5.74741 10.8356ZM16.8437 5.53688C17.1402 5.07093 17.0028 4.45285 16.5369 4.15634C16.0709 3.85983 15.4528 3.99718 15.1563 4.46312L16.8437 5.53688ZM8.56002 15.505L9.30743 14.8407L8.56002 15.505ZM9.35555 15.4413L10.1992 15.9782L9.35555 15.4413ZM4.25259 12.1644L7.81261 16.1694L9.30743 14.8407L5.74741 10.8356L4.25259 12.1644ZM10.1992 15.9782L16.8437 5.53688L15.1563 4.46312L8.51189 14.9044L10.1992 15.9782ZM7.81261 16.1694C8.47433 16.9138 9.66447 16.8185 10.1992 15.9782L8.51189 14.9044C8.69014 14.6243 9.08685 14.5925 9.30743 14.8407L7.81261 16.1694Z"/>
  </symbol>

  <symbol id="minus" viewBox="0 0 20 20">
    <path xmlns="http://www.w3.org/2000/svg" d="M7 10H13" stroke="#666666" stroke-width="2" stroke-linecap="round"/>
  </symbol>

  <symbol id="minus-circle-red" viewBox="0 0 20 20" fill="none">
    <circle cx="10" cy="10" r="7" stroke="#FF5F5F" stroke-width="2"/>
    <path d="M7 10H13" stroke="#FF5F5F" stroke-width="2" stroke-linecap="round"/>
  </symbol>

  <symbol id="arrow-down" viewBox="0 0 20 20" fill="none">
    <path xmlns="http://www.w3.org/2000/svg" d="M6 8L10 12L14 8" stroke="#1A1A1A" stroke-width="2" stroke-linecap="round"/>
  </symbol>

  <symbol id="arrow-left-gray" viewBox="0 0 20 20" fill="none">
    <path xmlns="http://www.w3.org/2000/svg" d="M12 6L8 10L12 14" stroke="#999999" stroke-linecap="round"/>
  </symbol>

  <symbol id="compare" viewBox="0 0 20 20" fill="none">
    <path d="M15 11H17V3H9V5H7V3C7 1.89543 7.89543 1 9 1H17C18.1046 1 19 1.89543 19 3V11C19 12.1046 18.1046 13 17 13H15V11Z" fill="#1A1A1A"/>
    <path d="M2 9C2 8.44772 2.44772 8 3 8H11C11.5523 8 12 8.44772 12 9V17C12 17.5523 11.5523 18 11 18H3C2.44772 18 2 17.5523 2 17V9Z" stroke="#1A1A1A" stroke-width="2"/>
  </symbol>

  <symbol id="additional-equipment" viewBox="0 0 16 16" fill="none">
    <path fill-rule="evenodd" clip-rule="evenodd" d="M16 8C16 12.4183 12.4183 16 8 16C3.58172 16 0 12.4183 0 8C0 3.58172 3.58172 0 8 0C12.4183 0 16 3.58172 16 8ZM8 3C7.44772 3 7 3.44772 7 4V6.5C7 6.77614 6.77614 7 6.5 7H4C3.44772 7 3 7.44772 3 8C3 8.55229 3.44772 9 4 9H6.5C6.77614 9 7 9.22386 7 9.5V12C7 12.5523 7.44772 13 8 13C8.55229 13 9 12.5523 9 12V9.5C9 9.22386 9.22386 9 9.5 9H12C12.5523 9 13 8.55229 13 8C13 7.44772 12.5523 7 12 7H9.5C9.22386 7 9 6.77614 9 6.5V4C9 3.44772 8.55229 3 8 3Z" fill="white"/>
  </symbol>

  <symbol id="characteristics" viewBox="0 0 16 16" fill="none">
    <path fill-rule="evenodd" clip-rule="evenodd" d="M13.9401 6.53165L15.4928 6.70042C15.7966 6.73418 16.016 6.97046 15.9991 7.27426V8.72574C15.9991 9.02954 15.7797 9.2827 15.4759 9.31646L13.9233 9.48523C13.7376 9.50211 13.5857 9.63713 13.5351 9.80591C13.4338 10.0928 13.3157 10.3797 13.1807 10.6667C13.0963 10.8354 13.1132 11.038 13.2313 11.173L14.2102 12.3882C14.4127 12.6076 14.3958 12.9451 14.1764 13.1646L13.1638 14.1772C12.9613 14.3797 12.6238 14.3966 12.3875 14.211L11.1724 13.2321C11.0205 13.1139 10.8348 13.097 10.6661 13.1814C10.396 13.3165 10.1091 13.4346 9.80535 13.5359C9.63658 13.5865 9.50157 13.7384 9.48469 13.9241L9.31593 15.4768C9.28217 15.7806 9.02902 16 8.72524 16H7.27385C6.97007 16 6.71692 15.7806 6.68316 15.4768L6.5144 13.9241C6.49752 13.7384 6.36251 13.5865 6.19374 13.5359C5.90684 13.4346 5.61993 13.3165 5.33303 13.1814C5.16426 13.097 4.96174 13.1139 4.82673 13.2321L3.61161 14.211C3.39221 14.4135 3.05468 14.3966 2.83528 14.1772L1.82268 13.1646C1.62016 12.962 1.60328 12.6245 1.78893 12.3882L2.76777 11.173C2.88591 11.0211 2.90279 10.8354 2.8184 10.6667C2.68339 10.3966 2.56525 10.1097 2.46399 9.80591C2.41336 9.63713 2.26147 9.50211 2.07583 9.48523L0.523177 9.31646C0.219397 9.2827 0 9.02954 0 8.72574V7.27426C0 6.97046 0.219397 6.7173 0.523177 6.68354L2.07583 6.51477C2.26147 6.49789 2.41336 6.36287 2.46399 6.19409C2.56525 5.90717 2.68339 5.62025 2.8184 5.33333C2.90279 5.16456 2.88591 4.96203 2.76777 4.827L1.78893 3.61181C1.58641 3.39241 1.60328 3.05485 1.82268 2.83544L2.83528 1.82278C3.0378 1.62025 3.37534 1.60338 3.61161 1.78903L4.82673 2.76793C4.97862 2.88608 5.16426 2.90295 5.33303 2.81857C5.60306 2.68354 5.88996 2.5654 6.19374 2.46413C6.36251 2.4135 6.49752 2.2616 6.5144 2.07595L6.68316 0.523207C6.71692 0.219409 6.97007 0 7.27385 0H8.72524C9.02902 0 9.28217 0.219409 9.31593 0.523207L9.48469 2.07595C9.50157 2.2616 9.61971 2.4135 9.80535 2.46413C10.0923 2.54852 10.396 2.68354 10.6661 2.81857C10.8348 2.90295 11.0205 2.88608 11.1724 2.76793L12.4044 1.80591C12.6238 1.60338 12.9613 1.62025 13.1807 1.83966L14.1933 2.85232C14.3958 3.05485 14.4127 3.39241 14.227 3.62869L13.2482 4.84388C13.1301 4.99578 13.1132 5.18143 13.1976 5.35021C13.3326 5.62025 13.4507 5.90717 13.552 6.21097C13.6026 6.37975 13.7545 6.51477 13.9401 6.53165ZM5.21489 8C5.21489 9.53586 6.46377 10.7848 7.99954 10.7848C9.53532 10.7848 10.7842 9.53586 10.7842 8C10.7842 6.46414 9.53532 5.21519 7.99954 5.21519C6.46377 5.21519 5.21489 6.46414 5.21489 8Z" fill="white"/>
  </symbol>

  <symbol id="comfort" viewBox="0 0 14 14" fill="none">
    <path fill-rule="evenodd" clip-rule="evenodd" d="M7 14C10.866 14 14 10.866 14 7C14 3.13401 10.866 0 7 0C3.13401 0 0 3.13401 0 7C0 10.866 3.13401 14 7 14Z" fill="white"/>
  </symbol>

  <symbol id="exterior" viewBox="0 0 16 11" fill="none">
    <path fill-rule="evenodd" clip-rule="evenodd" d="M15.1299 2.882H15.7461C15.9058 2.882 16.0199 2.992 15.9971 3.146V3.256C15.9971 3.322 15.9743 3.41 15.9058 3.454L15.244 3.982C15.2212 4.026 15.1756 4.048 15.1299 4.048H14.993L14.5138 3.916L14.5822 4.202C14.5963 4.202 14.6017 4.2104 14.6092 4.22202C14.6138 4.22919 14.6192 4.2376 14.6279 4.246L15.4722 5.302C15.4858 5.32169 15.4995 5.33942 15.5125 5.35636C15.5431 5.3962 15.5703 5.4317 15.5863 5.478C15.6776 5.654 15.7232 5.874 15.7004 6.072V11H13.601V9.944C13.601 9.79 13.464 9.68 13.3043 9.68H2.69281C2.53306 9.658 2.39614 9.79 2.39614 9.944V11H0.296665V6.072C0.273845 5.852 0.319485 5.654 0.410767 5.478C0.433587 5.412 0.479228 5.346 0.524869 5.302L1.36922 4.246C1.39204 4.246 1.41486 4.224 1.41486 4.202L1.48333 3.916L1.0041 4.048H0.867175C0.844354 4.037 0.827239 4.026 0.810123 4.015C0.793008 4.004 0.775893 3.993 0.753073 3.982L0.0912816 3.454C0.0456408 3.41 0 3.344 0 3.256V3.146C0 2.992 0.114102 2.882 0.273845 2.882H0.889995C0.958456 2.882 1.0041 2.904 1.04974 2.926L1.75717 3.366L2.85255 0.99C3.05793 0.528 3.51434 0.22 4.03921 0.198L7.00586 0.022C7.34817 0 7.66765 0 8.00996 0C8.35226 0 8.67175 0 9.01405 0.022L11.9807 0.198C12.5056 0.22 12.962 0.528 13.1674 0.99L14.2627 3.366L14.9702 2.926C15.0158 2.904 15.0843 2.882 15.1299 2.882ZM2.41896 6.424C2.41896 6.952 2.87537 7.392 3.42306 7.392C3.97075 7.392 4.42716 6.952 4.42716 6.424C4.42716 5.896 3.97075 5.456 3.42306 5.456C2.87537 5.456 2.41896 5.896 2.41896 6.424ZM2.80691 3.696C2.60152 3.696 2.4646 3.476 2.55588 3.3L3.74254 1.034C3.78818 0.946 3.87947 0.902 3.97075 0.88L6.89176 0.726C7.64483 0.682 8.3979 0.682 9.1738 0.726L12.072 0.88C12.1633 0.88 12.2545 0.946 12.3002 1.034L13.5097 3.3C13.601 3.476 13.464 3.696 13.2586 3.696H2.80691ZM11.6384 6.424C11.6384 6.952 12.0948 7.392 12.6425 7.392C13.1902 7.392 13.6466 6.952 13.6466 6.424C13.6466 5.896 13.1902 5.456 12.6425 5.456C12.0948 5.456 11.6384 5.896 11.6384 6.424Z" fill="white"/>
  </symbol>

  <symbol id="headlights" viewBox="0 0 16 12" fill="none">
    <path fill-rule="evenodd" clip-rule="evenodd" d="M15.3346 6.98838C14.1002 8.69184 11.2807 12 8 12C4.71927 12 1.89978 8.69184 0.665422 6.98838C0.233912 6.39288 0.233912 5.60712 0.665422 5.01162C1.89978 3.30816 4.71927 0 8 0C11.2807 0 14.1002 3.30816 15.3346 5.01162C15.7661 5.60712 15.7661 6.39288 15.3346 6.98838ZM11 6C11 7.65685 9.65686 9 8 9C6.34315 9 5 7.65685 5 6C5 4.34315 6.34315 3 8 3C9.65686 3 11 4.34315 11 6Z" fill="white"/>
  </symbol>

  <symbol id="interior" viewBox="0 0 16 16" fill="none">
    <path fill-rule="evenodd" clip-rule="evenodd" d="M8 0C3.58208 0 0 3.58208 0 8C0 12.4179 3.58208 16 8 16C12.4179 16 16 12.4179 16 8C16 3.58208 12.4179 0 8 0ZM8 2C10.6034 2 12.8029 3.67664 13.6328 6H2.3672C3.19712 3.67664 5.39664 2 8 2ZM7 8C7 8.5528 7.4472 9 8 9C8.5528 9 9 8.5528 9 8C9 7.4472 8.5528 7 8 7C7.4472 7 7 7.4472 7 8ZM2 8C4.73248 8 6.94528 10.6328 6.99216 13.8984C4.164 13.4141 2 10.9629 2 8ZM9.00784 13.8984C9.05472 10.6328 11.2675 8 14 8C14 10.9629 11.836 13.4141 9.00784 13.8984Z" fill="white"/>
  </symbol>

  <symbol id="multimedia" viewBox="0 0 16 12" fill="none">
    <path d="M0 8H16V10C16 11.1046 15.1046 12 14 12H2C0.895431 12 0 11.1046 0 10V8Z" fill="white"/>
    <path fill-rule="evenodd" clip-rule="evenodd" d="M0 8V10C0 11.1046 0.895431 12 2 12H14C15.1046 12 16 11.1046 16 10V8H0Z" fill="white"/>
    <path fill-rule="evenodd" clip-rule="evenodd" d="M14 1H2C1.44772 1 1 1.44772 1 2V8H15V2C15 1.44772 14.5523 1 14 1ZM2 0C0.895431 0 0 0.89543 0 2V9H16V2C16 0.895431 15.1046 0 14 0H2Z" fill="white"/>
  </symbol>

  <symbol id="price" viewBox="0 0 22 14" fill="none">
    <path d="M6.04395 8.96582V6.72461H0.269531V8.96582H6.04395Z" fill="white"/>
    <path d="M13.3213 3.3584C13.3213 1.3457 12.2051 0.0712891 10.4297 0.0712891C8.66309 0.0712891 7.53809 1.3457 7.53809 3.3584C7.53809 5.37988 8.66309 6.64551 10.4297 6.64551C12.2051 6.64551 13.3213 5.37988 13.3213 3.3584ZM10.4297 5.08984C9.8584 5.08984 9.50684 4.43945 9.50684 3.34961C9.50684 2.25977 9.8584 1.60059 10.4297 1.60059C11.001 1.60059 11.3525 2.25977 11.3525 3.34961C11.3525 4.43945 11.001 5.08984 10.4297 5.08984ZM10.9219 13L20.168 0.317383H18.0498L8.79492 13H10.9219ZM21.4248 9.88867C21.4248 7.87598 20.3086 6.60156 18.5332 6.60156C16.7666 6.60156 15.6416 7.87598 15.6416 9.88867C15.6416 11.9102 16.7666 13.1846 18.5332 13.1846C20.3086 13.1846 21.4248 11.9102 21.4248 9.88867ZM18.5332 11.6201C17.9619 11.6201 17.6104 10.9697 17.6104 9.87988C17.6104 8.79004 17.9619 8.13086 18.5332 8.13086C19.1045 8.13086 19.4561 8.79004 19.4561 9.87988C19.4561 10.9697 19.1045 11.6201 18.5332 11.6201Z" fill="white"/>
  </symbol>

  <symbol id="" viewBox="0 0 12 14" fill="none">
    <path d="M10.3312 6.02777C7.9875 6.02777 6.6 5.19166 6 4.725C5.2875 5.28889 3.43125 6.37777 0.149998 5.91111L0.131248 7.25277C0.131248 7.25277 0.281249 12.9694 5.98125 13.9417C11.7 12.9694 11.8312 7.25277 11.8312 7.25277L11.8125 5.91111C11.3062 6.00833 10.8 6.02777 10.3312 6.02777Z" fill="white"/>
    <path d="M5.6625 3.75277L6 3.38333L6.3375 3.77222C6.39375 3.85 8.00625 5.54166 11.8312 4.95833L11.8125 1.67222C8.25 2.66389 6 0.136108 6 0.136108C6 0.136108 3.75 2.66389 0.187498 1.67222L0.168748 4.93889C3.99375 5.52222 5.5875 3.83055 5.6625 3.75277Z" fill="white"/>
  </symbol>

  <symbol id="" viewBox="0 0 20 20" fill="none">

  </symbol>


</svg>
