<svg width="124" height="24" viewBox="0 0 124 24" fill="none" xmlns="http://www.w3.org/2000/svg">
<path fill-rule="evenodd" clip-rule="evenodd" d="M22.0362 21.8846H11.0181C4.9329 21.8846 0 16.9857 0 10.9423C0 4.89912 4.9329 0 11.0181 0C17.1032 0 22.0362 4.89912 22.0362 10.9423V21.8846Z" fill="#02C5AB"/>
<path fill-rule="evenodd" clip-rule="evenodd" d="M17.1134 12.812C16.8056 12.8701 15.609 13.0463 15.0324 12.9414C14.7771 12.8943 14.7241 12.6212 14.8352 12.479C15.3066 11.8681 16.68 10.623 17.1454 10.7995C17.5483 10.9517 17.8733 12.6685 17.1134 12.812ZM7.15045 9.56248C7.00463 9.53268 6.73505 9.36624 6.87823 8.95648C6.88088 8.94922 6.88321 8.94243 6.88492 8.93656C7.07536 8.43632 7.84103 6.86612 8.40599 6.78491C8.44392 6.7792 14.6344 6.7792 14.6728 6.78491C15.2376 6.86612 16.0034 8.43632 16.1934 8.93656C16.1951 8.94243 16.1974 8.94922 16.2001 8.95648C16.3428 9.36624 16.0735 9.53268 15.9272 9.56248C15.3489 9.67951 7.72987 9.67951 7.15045 9.56248ZM8.04624 12.9414C7.47009 13.0463 6.27317 12.8701 5.96519 12.812C5.20574 12.6685 5.53035 10.9517 5.93332 10.7995C6.39878 10.623 7.77216 11.8681 8.24353 12.479C8.35515 12.6212 8.30167 12.8943 8.04624 12.9414ZM18.8542 8.42134C18.6458 8.19577 17.9265 8.18512 17.5259 8.325C17.429 8.35866 17.3233 8.43292 17.2053 8.57142C17.0932 8.70265 17.0177 8.8027 16.9357 8.87836C16.9199 8.84254 16.9073 8.81042 16.8961 8.78371C16.6341 8.14961 15.5707 6.16038 14.7861 6.05709C14.5296 6.02389 8.54963 6.02389 8.29218 6.05709C7.50848 6.16038 6.44604 8.14961 6.18221 8.78371C6.17102 8.81042 6.15874 8.84269 6.14257 8.87866C6.0611 8.80286 5.98508 8.70265 5.87346 8.57142C5.75546 8.43292 5.64959 8.35866 5.55289 8.325C5.15226 8.18512 4.43292 8.19577 4.2246 8.42134C4.0553 8.60415 3.89719 9.00589 4.38426 9.22019C4.64855 9.33645 5.09194 9.45193 5.49941 9.54411C4.90056 10.0894 4.0853 11.1992 4.63363 13.0896C4.63456 13.1316 4.63502 16.0628 4.63502 16.0628C4.63502 16.233 4.78272 16.3702 4.96461 16.3702H7.0438C7.21714 16.3702 7.35753 16.246 7.37152 16.0877V15.3023H15.7009L15.7049 16.0628C15.7049 16.233 15.854 16.3702 16.0348 16.3702H18.1141C18.2965 16.3702 18.445 16.233 18.445 16.0628C18.445 16.0628 18.445 13.1316 18.4454 13.0896C18.9938 11.1991 18.178 10.0893 17.5793 9.54395C17.9868 9.45193 18.4297 9.33645 18.6945 9.22019C19.1814 9.00589 19.0235 8.60415 18.8542 8.42134Z" fill="white"/>
<path fill-rule="evenodd" clip-rule="evenodd" d="M70.8636 6.62434C67.4539 6.62434 64.69 9.36933 64.69 12.7552C64.69 16.1411 67.4539 18.886 70.8636 18.886C74.2729 18.886 77.0368 16.1411 77.0368 12.7552C77.0368 9.36933 74.2729 6.62434 70.8636 6.62434ZM70.8636 9.1836C72.8467 9.1836 74.4599 10.7858 74.4599 12.7552C74.4599 14.7247 72.8467 16.3269 70.8636 16.3269C68.8805 16.3269 67.267 14.7247 67.267 12.7552C67.267 10.7858 68.8805 9.1836 70.8636 9.1836Z" fill="white"/>
<path fill-rule="evenodd" clip-rule="evenodd" d="M109.456 6.62434C106.047 6.62434 103.283 9.36933 103.283 12.7552C103.283 16.1411 106.047 18.886 109.456 18.886C112.866 18.886 115.629 16.1411 115.629 12.7552C115.629 9.36933 112.866 6.62434 109.456 6.62434ZM109.456 9.1836C111.439 9.1836 113.052 10.7858 113.052 12.7552C113.052 14.7247 111.439 16.3269 109.456 16.3269C107.473 16.3269 105.859 14.7247 105.859 12.7552C105.859 10.7858 107.473 9.1836 109.456 9.1836Z" fill="#02C5AB"/>
<path fill-rule="evenodd" clip-rule="evenodd" d="M61.6896 16.1303C61.0766 16.1303 60.5786 15.6349 60.5786 15.0261V8.88175H63.2486V6.87168H60.5786V4.28324H58.001V6.87168H55.9537V8.88175H58.001V15.0261C58.001 17.046 59.6566 18.6902 61.6896 18.6902H63.5643V16.1303H61.6896Z" fill="white"/>
<path fill-rule="evenodd" clip-rule="evenodd" d="M121.503 16.1303C120.891 16.1303 120.393 15.6349 120.393 15.0261V8.88175H123.063V6.87168H120.393V4.28324H117.815V6.87168H115.768V8.88175H117.815V15.0261C117.815 17.046 119.471 18.6902 121.503 18.6902H123.378V16.1303H121.503Z" fill="#02C5AB"/>
<path fill-rule="evenodd" clip-rule="evenodd" d="M95.9805 16.0489H92.4132C92.4132 15.8278 92.4132 15.6152 92.4132 15.4187C92.4132 12.4833 92.4373 11.6545 93.098 10.7299C93.7169 9.79994 94.7764 9.18344 95.9805 9.18344C97.8865 9.18344 99.4371 10.7235 99.4371 12.6163C99.4371 14.5088 97.8865 16.0489 95.9805 16.0489ZM95.9805 6.62449C92.6484 6.62449 89.947 9.30711 89.947 12.6163V24H92.4132C92.4132 24 92.4132 21.2487 92.4132 18.608H95.9805C99.3127 18.608 102.014 15.9254 102.014 12.6163C102.014 9.30711 99.3127 6.62449 95.9805 6.62449Z" fill="#02C5AB"/>
<path fill-rule="evenodd" clip-rule="evenodd" d="M83.6027 11.559C81.4293 11.1463 81.068 10.8489 81.086 10.3474C81.0913 10.2045 81.1118 9.73788 81.82 9.39404C83.2456 8.70157 85.7975 9.05607 87.1465 9.96067L88.3473 7.70001C86.2162 6.4227 82.8771 6.1542 80.7084 7.1797C79.3406 7.82677 78.5605 8.91927 78.512 10.2554C78.4077 13.1455 81.2576 13.5436 83.1425 13.91C83.5845 13.9966 83.957 14.083 84.2782 14.1733C84.2961 14.1783 84.3163 14.1834 84.3337 14.1883C85.2968 14.4661 85.7172 14.7878 85.7259 15.2865C85.7259 15.2997 85.7248 15.3126 85.7245 15.3256C85.7078 15.6582 85.3801 15.9094 84.8906 16.0767C84.7586 16.1215 84.6197 16.1586 84.4759 16.1902C84.3596 16.2158 84.2392 16.2379 84.1142 16.2563C83.9463 16.2802 83.777 16.3022 83.6011 16.3119C83.5248 16.317 83.4467 16.317 83.3695 16.3198C81.7609 16.3597 79.9741 15.8945 79.4429 15.432V15.4323L78.0328 17.5688C79.145 18.346 81.1524 18.8764 83.0865 18.8764C84.1454 18.8764 85.1562 18.8253 86.001 18.4638C87.441 17.8489 88.2764 16.7564 88.3406 15.3126C88.4605 12.6163 85.7178 11.9602 83.6027 11.559Z" fill="#02C5AB"/>
<path fill-rule="evenodd" clip-rule="evenodd" d="M52.0318 6.87168V13.3935H52.0279L52.0276 13.3938H52.0318C52.0318 15.0585 50.668 16.4129 48.9915 16.4129C47.3153 16.4129 45.9515 15.0585 45.9515 13.3938H45.9557L45.9554 13.3935H45.9515V6.87168H43.3747V13.3938C43.3747 16.4746 45.8894 18.9721 48.9915 18.9721C52.0938 18.9721 54.6086 16.4746 54.6086 13.3938V6.87168H52.0318Z" fill="white"/>
<path fill-rule="evenodd" clip-rule="evenodd" d="M39.4641 16.1402H39.3351V16.1413H35.9581C34.0961 16.1413 32.5812 14.6367 32.5812 12.7875C32.5812 10.9381 34.0961 9.43372 35.9581 9.43372C36.5478 9.43372 37.1022 9.58549 37.5852 9.85043C39.1369 10.6579 39.4641 11.8054 39.4641 13.3646C39.4641 15.0227 39.4641 16.1402 39.4641 16.1402ZM35.9581 6.87508C32.6702 6.87508 30.0049 9.52219 30.0049 12.7875C30.0049 16.0528 32.6702 18.6998 35.9581 18.6998H41.9113V12.7875C41.9113 9.52219 39.2459 6.87508 35.9581 6.87508Z" fill="white"/>
</svg>
