<svg width="16" height="16" viewBox="0 0 16 16" fill="none" xmlns="http://www.w3.org/2000/svg">
<path fill-rule="evenodd" clip-rule="evenodd" d="M16 8C16 12.4183 12.4183 16 8 16C3.58172 16 0 12.4183 0 8C0 3.58172 3.58172 0 8 0C12.4183 0 16 3.58172 16 8ZM8 3C7.44772 3 7 3.44772 7 4V6.5C7 6.77614 6.77614 7 6.5 7H4C3.44772 7 3 7.44772 3 8C3 8.55229 3.44772 9 4 9H6.5C6.77614 9 7 9.22386 7 9.5V12C7 12.5523 7.44772 13 8 13C8.55229 13 9 12.5523 9 12V9.5C9 9.22386 9.22386 9 9.5 9H12C12.5523 9 13 8.55229 13 8C13 7.44772 12.5523 7 12 7H9.5C9.22386 7 9 6.77614 9 6.5V4C9 3.44772 8.55229 3 8 3Z" fill="white"/>
</svg>
