<svg width="16" height="16" viewBox="0 0 16 16" fill="none" xmlns="http://www.w3.org/2000/svg">
<path fill-rule="evenodd" clip-rule="evenodd" d="M13.9401 6.53165L15.4928 6.70042C15.7966 6.73418 16.016 6.97046 15.9991 7.27426V8.72574C15.9991 9.02954 15.7797 9.2827 15.4759 9.31646L13.9233 9.48523C13.7376 9.50211 13.5857 9.63713 13.5351 9.80591C13.4338 10.0928 13.3157 10.3797 13.1807 10.6667C13.0963 10.8354 13.1132 11.038 13.2313 11.173L14.2102 12.3882C14.4127 12.6076 14.3958 12.9451 14.1764 13.1646L13.1638 14.1772C12.9613 14.3797 12.6238 14.3966 12.3875 14.211L11.1724 13.2321C11.0205 13.1139 10.8348 13.097 10.6661 13.1814C10.396 13.3165 10.1091 13.4346 9.80535 13.5359C9.63658 13.5865 9.50157 13.7384 9.48469 13.9241L9.31593 15.4768C9.28217 15.7806 9.02902 16 8.72524 16H7.27385C6.97007 16 6.71692 15.7806 6.68316 15.4768L6.5144 13.9241C6.49752 13.7384 6.36251 13.5865 6.19374 13.5359C5.90684 13.4346 5.61993 13.3165 5.33303 13.1814C5.16426 13.097 4.96174 13.1139 4.82673 13.2321L3.61161 14.211C3.39221 14.4135 3.05468 14.3966 2.83528 14.1772L1.82268 13.1646C1.62016 12.962 1.60328 12.6245 1.78893 12.3882L2.76777 11.173C2.88591 11.0211 2.90279 10.8354 2.8184 10.6667C2.68339 10.3966 2.56525 10.1097 2.46399 9.80591C2.41336 9.63713 2.26147 9.50211 2.07583 9.48523L0.523177 9.31646C0.219397 9.2827 0 9.02954 0 8.72574V7.27426C0 6.97046 0.219397 6.7173 0.523177 6.68354L2.07583 6.51477C2.26147 6.49789 2.41336 6.36287 2.46399 6.19409C2.56525 5.90717 2.68339 5.62025 2.8184 5.33333C2.90279 5.16456 2.88591 4.96203 2.76777 4.827L1.78893 3.61181C1.58641 3.39241 1.60328 3.05485 1.82268 2.83544L2.83528 1.82278C3.0378 1.62025 3.37534 1.60338 3.61161 1.78903L4.82673 2.76793C4.97862 2.88608 5.16426 2.90295 5.33303 2.81857C5.60306 2.68354 5.88996 2.5654 6.19374 2.46413C6.36251 2.4135 6.49752 2.2616 6.5144 2.07595L6.68316 0.523207C6.71692 0.219409 6.97007 0 7.27385 0H8.72524C9.02902 0 9.28217 0.219409 9.31593 0.523207L9.48469 2.07595C9.50157 2.2616 9.61971 2.4135 9.80535 2.46413C10.0923 2.54852 10.396 2.68354 10.6661 2.81857C10.8348 2.90295 11.0205 2.88608 11.1724 2.76793L12.4044 1.80591C12.6238 1.60338 12.9613 1.62025 13.1807 1.83966L14.1933 2.85232C14.3958 3.05485 14.4127 3.39241 14.227 3.62869L13.2482 4.84388C13.1301 4.99578 13.1132 5.18143 13.1976 5.35021C13.3326 5.62025 13.4507 5.90717 13.552 6.21097C13.6026 6.37975 13.7545 6.51477 13.9401 6.53165ZM5.21489 8C5.21489 9.53586 6.46377 10.7848 7.99954 10.7848C9.53532 10.7848 10.7842 9.53586 10.7842 8C10.7842 6.46414 9.53532 5.21519 7.99954 5.21519C6.46377 5.21519 5.21489 6.46414 5.21489 8Z" fill="white"/>
</svg>
