<svg width="20" height="20" viewBox="0 0 20 20" fill="none" xmlns="http://www.w3.org/2000/svg">
<path d="M5.74741 10.8356C5.38049 10.4229 4.74842 10.3857 4.33564 10.7526C3.92285 11.1195 3.88567 11.7516 4.25259 12.1644L5.74741 10.8356ZM16.8437 5.53688C17.1402 5.07093 17.0028 4.45285 16.5369 4.15634C16.0709 3.85983 15.4528 3.99718 15.1563 4.46312L16.8437 5.53688ZM8.56002 15.505L9.30743 14.8407L8.56002 15.505ZM9.35555 15.4413L10.1992 15.9782L9.35555 15.4413ZM4.25259 12.1644L7.81261 16.1694L9.30743 14.8407L5.74741 10.8356L4.25259 12.1644ZM10.1992 15.9782L16.8437 5.53688L15.1563 4.46312L8.51189 14.9044L10.1992 15.9782ZM7.81261 16.1694C8.47433 16.9138 9.66447 16.8185 10.1992 15.9782L8.51189 14.9044C8.69014 14.6243 9.08685 14.5925 9.30743 14.8407L7.81261 16.1694Z" fill="#1A1A1A"/>
</svg>
