<svg width="16" height="11" viewBox="0 0 16 11" fill="none" xmlns="http://www.w3.org/2000/svg">
<path fill-rule="evenodd" clip-rule="evenodd" d="M15.1299 2.882H15.7461C15.9058 2.882 16.0199 2.992 15.9971 3.146V3.256C15.9971 3.322 15.9743 3.41 15.9058 3.454L15.244 3.982C15.2212 4.026 15.1756 4.048 15.1299 4.048H14.993L14.5138 3.916L14.5822 4.202C14.5963 4.202 14.6017 4.2104 14.6092 4.22202C14.6138 4.22919 14.6192 4.2376 14.6279 4.246L15.4722 5.302C15.4858 5.32169 15.4995 5.33942 15.5125 5.35636C15.5431 5.3962 15.5703 5.4317 15.5863 5.478C15.6776 5.654 15.7232 5.874 15.7004 6.072V11H13.601V9.944C13.601 9.79 13.464 9.68 13.3043 9.68H2.69281C2.53306 9.658 2.39614 9.79 2.39614 9.944V11H0.296665V6.072C0.273845 5.852 0.319485 5.654 0.410767 5.478C0.433587 5.412 0.479228 5.346 0.524869 5.302L1.36922 4.246C1.39204 4.246 1.41486 4.224 1.41486 4.202L1.48333 3.916L1.0041 4.048H0.867175C0.844354 4.037 0.827239 4.026 0.810123 4.015C0.793008 4.004 0.775893 3.993 0.753073 3.982L0.0912816 3.454C0.0456408 3.41 0 3.344 0 3.256V3.146C0 2.992 0.114102 2.882 0.273845 2.882H0.889995C0.958456 2.882 1.0041 2.904 1.04974 2.926L1.75717 3.366L2.85255 0.99C3.05793 0.528 3.51434 0.22 4.03921 0.198L7.00586 0.022C7.34817 0 7.66765 0 8.00996 0C8.35226 0 8.67175 0 9.01405 0.022L11.9807 0.198C12.5056 0.22 12.962 0.528 13.1674 0.99L14.2627 3.366L14.9702 2.926C15.0158 2.904 15.0843 2.882 15.1299 2.882ZM2.41896 6.424C2.41896 6.952 2.87537 7.392 3.42306 7.392C3.97075 7.392 4.42716 6.952 4.42716 6.424C4.42716 5.896 3.97075 5.456 3.42306 5.456C2.87537 5.456 2.41896 5.896 2.41896 6.424ZM2.80691 3.696C2.60152 3.696 2.4646 3.476 2.55588 3.3L3.74254 1.034C3.78818 0.946 3.87947 0.902 3.97075 0.88L6.89176 0.726C7.64483 0.682 8.3979 0.682 9.1738 0.726L12.072 0.88C12.1633 0.88 12.2545 0.946 12.3002 1.034L13.5097 3.3C13.601 3.476 13.464 3.696 13.2586 3.696H2.80691ZM11.6384 6.424C11.6384 6.952 12.0948 7.392 12.6425 7.392C13.1902 7.392 13.6466 6.952 13.6466 6.424C13.6466 5.896 13.1902 5.456 12.6425 5.456C12.0948 5.456 11.6384 5.896 11.6384 6.424Z" fill="white"/>
</svg>
