<svg width="16" height="12" viewBox="0 0 16 12" fill="none" xmlns="http://www.w3.org/2000/svg">
<path fill-rule="evenodd" clip-rule="evenodd" d="M15.3346 6.98838C14.1002 8.69184 11.2807 12 8 12C4.71927 12 1.89978 8.69184 0.665422 6.98838C0.233912 6.39288 0.233912 5.60712 0.665422 5.01162C1.89978 3.30816 4.71927 0 8 0C11.2807 0 14.1002 3.30816 15.3346 5.01162C15.7661 5.60712 15.7661 6.39288 15.3346 6.98838ZM11 6C11 7.65685 9.65686 9 8 9C6.34315 9 5 7.65685 5 6C5 4.34315 6.34315 3 8 3C9.65686 3 11 4.34315 11 6Z" fill="white"/>
</svg>
