<svg width="16" height="16" viewBox="0 0 16 16" fill="none" xmlns="http://www.w3.org/2000/svg">
<path fill-rule="evenodd" clip-rule="evenodd" d="M8 0C3.58208 0 0 3.58208 0 8C0 12.4179 3.58208 16 8 16C12.4179 16 16 12.4179 16 8C16 3.58208 12.4179 0 8 0ZM8 2C10.6034 2 12.8029 3.67664 13.6328 6H2.3672C3.19712 3.67664 5.39664 2 8 2ZM7 8C7 8.5528 7.4472 9 8 9C8.5528 9 9 8.5528 9 8C9 7.4472 8.5528 7 8 7C7.4472 7 7 7.4472 7 8ZM2 8C4.73248 8 6.94528 10.6328 6.99216 13.8984C4.164 13.4141 2 10.9629 2 8ZM9.00784 13.8984C9.05472 10.6328 11.2675 8 14 8C14 10.9629 11.836 13.4141 9.00784 13.8984Z" fill="white"/>
</svg>
