<svg width="16" height="12" viewBox="0 0 16 12" fill="none" xmlns="http://www.w3.org/2000/svg">
<path d="M0 8H16V10C16 11.1046 15.1046 12 14 12H2C0.895431 12 0 11.1046 0 10V8Z" fill="white"/>
<path fill-rule="evenodd" clip-rule="evenodd" d="M0 8V10C0 11.1046 0.895431 12 2 12H14C15.1046 12 16 11.1046 16 10V8H0Z" fill="white"/>
<path fill-rule="evenodd" clip-rule="evenodd" d="M14 1H2C1.44772 1 1 1.44772 1 2V8H15V2C15 1.44772 14.5523 1 14 1ZM2 0C0.895431 0 0 0.89543 0 2V9H16V2C16 0.895431 15.1046 0 14 0H2Z" fill="white"/>
</svg>
