<svg width="22" height="14" viewBox="0 0 22 14" fill="none" xmlns="http://www.w3.org/2000/svg">
<path d="M6.04395 8.96582V6.72461H0.269531V8.96582H6.04395Z" fill="white"/>
<path d="M13.3213 3.3584C13.3213 1.3457 12.2051 0.0712891 10.4297 0.0712891C8.66309 0.0712891 7.53809 1.3457 7.53809 3.3584C7.53809 5.37988 8.66309 6.64551 10.4297 6.64551C12.2051 6.64551 13.3213 5.37988 13.3213 3.3584ZM10.4297 5.08984C9.8584 5.08984 9.50684 4.43945 9.50684 3.34961C9.50684 2.25977 9.8584 1.60059 10.4297 1.60059C11.001 1.60059 11.3525 2.25977 11.3525 3.34961C11.3525 4.43945 11.001 5.08984 10.4297 5.08984ZM10.9219 13L20.168 0.317383H18.0498L8.79492 13H10.9219ZM21.4248 9.88867C21.4248 7.87598 20.3086 6.60156 18.5332 6.60156C16.7666 6.60156 15.6416 7.87598 15.6416 9.88867C15.6416 11.9102 16.7666 13.1846 18.5332 13.1846C20.3086 13.1846 21.4248 11.9102 21.4248 9.88867ZM18.5332 11.6201C17.9619 11.6201 17.6104 10.9697 17.6104 9.87988C17.6104 8.79004 17.9619 8.13086 18.5332 8.13086C19.1045 8.13086 19.4561 8.79004 19.4561 9.87988C19.4561 10.9697 19.1045 11.6201 18.5332 11.6201Z" fill="white"/>
</svg>
