<svg width="12" height="14" viewBox="0 0 12 14" fill="none" xmlns="http://www.w3.org/2000/svg">
<path d="M10.3312 6.02777C7.9875 6.02777 6.6 5.19166 6 4.725C5.2875 5.28889 3.43125 6.37777 0.149998 5.91111L0.131248 7.25277C0.131248 7.25277 0.281249 12.9694 5.98125 13.9417C11.7 12.9694 11.8312 7.25277 11.8312 7.25277L11.8125 5.91111C11.3062 6.00833 10.8 6.02777 10.3312 6.02777Z" fill="white"/>
<path d="M5.6625 3.75277L6 3.38333L6.3375 3.77222C6.39375 3.85 8.00625 5.54166 11.8312 4.95833L11.8125 1.67222C8.25 2.66389 6 0.136108 6 0.136108C6 0.136108 3.75 2.66389 0.187498 1.67222L0.168748 4.93889C3.99375 5.52222 5.5875 3.83055 5.6625 3.75277Z" fill="white"/>
</svg>
