<svg width="184" height="32" viewBox="0 0 184 32" fill="none" xmlns="http://www.w3.org/2000/svg">
<path fill-rule="evenodd" clip-rule="evenodd" d="M174.257 9.18134H177.402L177.383 14.1413H178.067L179.862 9.18134H183.265L180.823 15.7347L183.617 22.988H179.935L178.124 17.4353H177.384L177.402 22.988H174.257V9.18134ZM163.66 9.18134H166.786V14.1613H169.024V9.18134H172.149V22.988H169.024V17.4547H166.786V22.988H163.66V9.18134ZM152.765 23.006H156.021L156.41 20.6193H158.646L159.035 23.006H162.29L159.553 9.20201H155.52L152.765 23.006V23.006ZM157.536 13.382L158.128 17.5833H156.925L157.536 13.382ZM144.033 22.988H147.843C148.675 22.988 152.135 22.6347 152.153 18.4513C152.153 14.94 149.472 14.3273 147.733 14.3273H147.159V12.4953H151.395V9.18201H144.033V22.988ZM147.159 20.2113V17.0847H147.621C148.009 17.0847 149.01 17.1027 149.01 18.5273C149.01 19.9727 148.01 20.2113 147.621 20.2113H147.159ZM131.622 9.18134H134.342L136.744 12.4387L139.169 9.18134H141.869V22.988H138.667V14.5667L136.744 16.9727L134.821 14.5667V22.988H131.622V9.18134ZM125.017 23.1553C128.809 23.1553 130.084 19.6 130.084 16.0667C130.084 12.5333 128.809 8.97867 125.017 8.97867C121.226 8.97867 119.951 12.5333 119.951 16.0667C119.951 19.6 121.226 23.1553 125.017 23.1553ZM125.017 19.8047C123.887 19.8047 123.316 18.492 123.316 16.0667C123.316 13.6413 123.887 12.3287 125.017 12.3287C126.147 12.3287 126.718 13.642 126.718 16.0667C126.718 18.492 126.147 19.8047 125.017 19.8047ZM110.681 22.988H113.881V18.436H114.955C118.117 18.436 119.099 15.5853 119.099 13.7693C119.099 11.9933 117.969 9.18134 114.955 9.18134H110.681V22.988V22.988ZM113.881 12.2167H114.64C115.362 12.2167 115.825 12.6607 115.825 13.808C115.825 15.2887 115.047 15.398 114.64 15.398H113.881V12.2167V12.2167ZM100.119 9.18134H108.85V22.988H105.649V12.5127H103.319V22.988H100.119V9.18134ZM93.5526 14.5313C94.0693 14.5313 95.014 14.198 95.014 13.18C95.014 11.978 93.9233 11.902 93.6073 11.902C93.238 11.902 92.536 11.9593 91.8506 12.292L91.814 9.29201C92.9046 9.01534 93.682 8.94067 94.606 8.94067C97.2346 8.94067 98.3993 10.774 98.3993 12.5673C98.3993 14.3087 97.3993 15.3607 96.42 15.7693V15.8987C97.3633 16.1973 98.6213 17.1013 98.6213 19.212C98.6213 21.8227 96.8093 23.2653 94.4773 23.2653C93.238 23.248 92.424 23.0813 91.4433 22.5453L91.4993 19.6747C92.406 20.0647 93.016 20.1013 93.6266 20.1013C94.6626 20.1013 95.0686 19.3407 95.0686 18.788C95.0686 18.0093 94.57 17.4913 93.4786 17.4913H92.184V14.5313H93.5526V14.5313ZM80.9753 22.988H84.212L84.6186 20.5993H86.8573L87.2453 22.988H90.4813L87.7433 9.18134H83.712L80.9753 22.988ZM85.7286 13.346L86.3386 17.566H85.1173L85.728 13.346H85.7286ZM74.7793 9.18134H81.3426V12.6233H78.0333V22.988H74.7793V9.18134Z" fill="white"/>
<rect x="7" y="8" width="2" height="16" rx="1" fill="white"/>
<rect y="15" width="16" height="2" rx="1" fill="white"/>
<path d="M32.8 16.0087C32.8 24.3833 39.6233 31.2 48.0107 31.2C56.3813 31.2 63.2 24.3807 63.2 16.0087C63.2 7.62133 56.384 0.8 48.0107 0.8C39.62 0.8 32.8 7.61867 32.8 16.0087ZM32 16.0087C32 7.17667 39.1787 0 48.0107 0C56.8227 0 64 7.17667 64 16.0087C64 24.8227 56.8227 32 48.0107 32C39.1787 32 32 24.8227 32 16.0087Z" fill="white"/>
<path fill-rule="evenodd" clip-rule="evenodd" d="M41.4354 6.42931C45.3008 4.70931 50.0188 4.82064 52.5514 5.94997C53.3474 6.31997 53.8821 6.54397 54.1248 6.98597C51.4968 6.28197 50.3681 6.15464 48.1688 6.20797C45.0401 6.26464 40.8788 7.50264 39.2881 8.44931L38.5881 9.31997C40.8788 7.96464 45.1528 7.07997 47.5214 7.00464C50.1668 6.96864 52.2188 7.20931 54.1068 7.89397C53.9941 8.37397 53.7534 8.61464 53.3468 8.85664C45.8001 7.54197 41.3414 9.09531 37.3094 11.7233L37.0148 12.592C41.5101 9.50331 47.0201 8.65331 52.3308 9.57797C50.4254 10.2446 48.1508 10.3913 46.2454 10.8326C44.6181 11.204 43.7481 11.316 41.5821 12.0393C39.3834 12.7606 38.0861 13.5006 37.2734 14.4446C36.8848 14.8906 36.5881 15.4073 36.5134 15.9613C36.4788 16.2926 36.4968 16.5913 36.6088 16.888C36.6974 17.1466 36.9021 17.406 37.1254 17.6646C36.8674 18.108 36.6421 18.684 37.0148 19.35C37.1801 19.6633 37.6061 19.9766 38.0148 20.2766L37.9008 20.606C37.8448 20.9973 37.7914 21.4586 38.0501 21.846C38.4928 22.5493 39.0294 23.0133 39.8801 23.458C40.0108 24.0313 40.2121 24.4933 40.6568 24.902C41.5994 25.77 43.7101 27.436 47.4634 27.6953C50.2768 27.882 52.2921 27.0293 53.0521 26.6586L53.9761 26.1786C52.4041 26.8066 49.7601 27.1773 47.5934 26.992C44.4488 26.7333 41.6401 24.6793 41.2881 24.0866C41.3974 24.1593 41.5461 24.2153 41.6734 24.272C45.3561 26.048 50.1094 27.012 56.1954 24.532L56.6974 24.05C51.1641 25.77 46.3201 25.7153 41.1194 22.9953C41.1768 22.7366 41.2881 22.5113 41.5261 22.33C42.8574 22.9186 44.1354 23.4033 45.6894 23.716C47.5028 24.0493 49.5728 24.1246 51.2761 24.0493C52.9974 23.976 56.3988 23.1246 58.0094 22.2733C58.1561 22.1446 58.2294 21.924 58.3774 21.7746C55.2354 22.9186 51.4974 23.458 49.2414 23.2893C47.0401 23.1246 45.0814 22.864 42.4901 21.6806C42.992 21.4809 43.5041 21.3076 44.0241 21.1613C45.7261 21.6813 47.4641 21.9933 49.5174 22.088C51.5541 22.1793 56.3068 21.4226 59.3028 19.61C59.3968 19.35 59.4881 19.0706 59.4881 19.0706C59.4881 19.0706 55.3261 21.294 50.6108 21.294C48.4088 21.294 47.0588 20.9773 46.0608 20.7373C48.2788 20.3306 51.0734 19.996 54.2154 19.2013C55.8061 18.7933 57.7674 17.8673 58.6554 17.0913C59.4141 16.4046 60.0068 15.516 59.8041 14.6133C59.7641 14.3693 59.4328 13.7986 59.0254 13.5933C59.4141 13.094 59.3768 12.668 59.3234 12.3C59.2848 12.0186 59.1548 11.7066 58.9908 11.43C58.7308 11.0933 58.4888 10.8326 57.9888 10.5386C58.0641 10.112 58.0088 9.74331 57.8408 9.39197C57.4534 8.72531 56.7521 8.15264 55.5488 7.54197C55.4934 7.29997 55.3441 6.98597 55.0868 6.67197C53.5714 5.17264 51.0914 4.45131 49.0001 4.41331C48.8828 4.41064 48.7668 4.40997 48.6521 4.40997C46.2061 4.40997 44.2428 4.95931 43.0274 5.52664C42.3961 5.79997 41.9148 6.09731 41.4354 6.42931V6.42931ZM55.3994 8.44931C55.9194 8.78264 56.5108 9.28264 56.5834 9.80064C56.0301 9.59464 55.4381 9.37597 54.8648 9.22731C55.0514 9.02331 55.3261 8.70864 55.3994 8.44931V8.44931ZM52.6248 10.7626C53.2561 10.52 53.6788 10.2626 54.0514 9.96531C54.8808 10.186 55.6581 10.4653 56.2908 10.742C56.1821 10.9033 55.5481 11.4893 55.3548 11.4893C55.3449 11.49 55.335 11.4881 55.3261 11.484C54.4394 11.242 53.6634 10.9453 52.6248 10.7626V10.7626ZM57.6028 11.5013C58.1008 11.9273 58.2488 12.2233 58.0094 12.6866C57.6781 12.4466 57.3228 12.316 56.9361 12.1313C57.1761 11.946 57.3988 11.7446 57.6028 11.5013ZM42.2308 13.2053C44.5428 12.5186 47.2441 12.0033 49.6868 11.7066C51.3668 11.5013 52.2574 11.6886 53.8488 12.1133C49.7601 13.2053 45.7261 13.5546 41.8781 14.6846C38.7761 15.586 37.9534 16.7213 37.9408 16.7213C36.5694 14.8333 41.3228 13.4833 42.2308 13.2053V13.2053ZM44.4148 15.48C47.8348 14.74 51.0174 14.278 52.3308 13.946C53.9221 13.5546 55.0321 13.186 55.8061 12.8173C55.8434 12.7606 57.1014 13.3706 57.2308 13.5173C56.8068 13.8706 56.2161 14.168 55.5668 14.3873C53.6248 15.0913 50.0928 15.8306 48.2248 16.1133C46.3381 16.426 44.7621 16.6653 42.6754 17.218C41.4714 17.5346 40.6568 17.9046 40.0648 18.294C39.6214 18.034 39.3621 17.962 38.9554 17.6273C40.3988 16.4046 43.3408 15.7206 44.4148 15.4806V15.48ZM43.5601 18.48C46.8168 17.6806 49.6868 17.5346 53.6448 16.4626C55.5488 15.9613 56.9361 15.4226 57.8068 14.76C57.9348 14.6466 58.0641 14.5546 58.1948 14.4446C59.3414 16.2206 55.0321 17.59 52.0888 18.2226C50.5499 18.5271 49.008 18.8164 47.4634 19.0906C45.5434 19.4046 44.9108 19.572 43.5801 19.96C42.9148 19.7 42.2481 19.4226 41.6401 19.1073C42.2481 18.8486 42.9148 18.6446 43.5601 18.4806V18.48ZM39.0488 19.0706C38.9188 19.182 38.7514 19.294 38.6234 19.4226C38.3288 19.2546 38.0301 18.888 38.1781 18.552C38.4748 18.7393 38.6961 18.888 39.0488 19.0706V19.0706ZM40.3988 19.7573C40.9541 20.0173 41.5261 20.2546 42.0628 20.4966C41.6734 20.6433 41.3228 20.8113 41.0294 20.9966C40.5878 20.7558 40.1497 20.5085 39.7154 20.2546C39.9301 20.0718 40.1586 19.9058 40.3988 19.758V19.7573ZM40.1788 21.6993C40.0481 21.8846 39.9541 22.0306 39.9008 22.218C39.4374 21.8286 39.2141 21.514 39.2334 21.1613C39.5474 21.3653 39.8621 21.5313 40.1781 21.6993H40.1788Z" fill="white"/>
</svg>
