<?xml version="1.0" encoding="utf-8"?>
<!-- Generator: Adobe Illustrator 22.1.0, SVG Export Plug-In . SVG Version: 6.00 Build 0)  -->
<svg version="1.1" id="Слой_1" xmlns="http://www.w3.org/2000/svg" xmlns:xlink="http://www.w3.org/1999/xlink" x="0px" y="0px"
	 viewBox="0 0 164 32" enable-background="new 0 0 164 32" xml:space="preserve">
<path fill="#FFFFFF" d="M148.4,9.2h3.1l0,5h0.7l1.8-5h3.4l-2.4,6.6l2.8,7.3h-3.7l-1.8-5.6h-0.7l0,5.6h-3.1V9.2z M137.9,9.2h3.1v5
	h2.2v-5h3.1V23h-3.1v-5.5H141V23h-3.1V9.2z M127,23h3.3l0.4-2.4h2.2l0.4,2.4h3.3l-2.7-13.8h-4L127,23L127,23z M131.7,13.4l0.6,4.2
	h-1.2L131.7,13.4z M118.2,23h3.8c0.8,0,4.3-0.4,4.3-4.5c0-3.5-2.7-4.1-4.4-4.1h-0.6v-1.8h4.2V9.2h-7.4V23z M121.4,20.2v-3.1h0.5
	c0.4,0,1.4,0,1.4,1.4c0,1.4-1,1.7-1.4,1.7H121.4z M105.8,9.2h2.7l2.4,3.3l2.4-3.3h2.7V23h-3.2v-8.4l-1.9,2.4l-1.9-2.4V23h-3.2V9.2z
	 M99.2,23.2c3.8,0,5.1-3.6,5.1-7.1c0-3.5-1.3-7.1-5.1-7.1c-3.8,0-5.1,3.6-5.1,7.1C94.1,19.6,95.4,23.2,99.2,23.2z M99.2,19.8
	c-1.1,0-1.7-1.3-1.7-3.7c0-2.4,0.6-3.7,1.7-3.7c1.1,0,1.7,1.3,1.7,3.7C100.9,18.5,100.3,19.8,99.2,19.8z M84.9,23h3.2v-4.6h1.1
	c3.2,0,4.1-2.9,4.1-4.7c0-1.8-1.1-4.6-4.1-4.6h-4.3V23L84.9,23z M88.1,12.2h0.8c0.7,0,1.2,0.4,1.2,1.6c0,1.5-0.8,1.6-1.2,1.6h-0.8
	V12.2L88.1,12.2z M74.3,9.2H83V23h-3.2V12.5h-2.3V23h-3.2V9.2z M67.7,14.5c0.5,0,1.5-0.3,1.5-1.4c0-1.2-1.1-1.3-1.4-1.3
	c-0.4,0-1.1,0.1-1.8,0.4l0-3c1.1-0.3,1.9-0.4,2.8-0.4c2.6,0,3.8,1.8,3.8,3.6c0,1.7-1,2.8-2,3.2v0.1c0.9,0.3,2.2,1.2,2.2,3.3
	c0,2.6-1.8,4.1-4.1,4.1c-1.2,0-2.1-0.2-3-0.7l0.1-2.9c0.9,0.4,1.5,0.4,2.1,0.4c1,0,1.4-0.8,1.4-1.3c0-0.8-0.5-1.3-1.6-1.3h-1.3v-3
	H67.7L67.7,14.5z M55.2,23h3.2l0.4-2.4H61l0.4,2.4h3.2L61.9,9.2h-4L55.2,23z M59.9,13.3l0.6,4.2h-1.2L59.9,13.3L59.9,13.3z M49,9.2
	h6.6v3.4h-3.3V23H49V9.2z"/>
<path fill="#FFFFFF" d="M7,16c0,8.4,6.8,15.2,15.2,15.2c8.4,0,15.2-6.8,15.2-15.2c0-8.4-6.8-15.2-15.2-15.2C13.8,0.8,7,7.6,7,16z
	 M6.2,16c0-8.8,7.2-16,16-16c8.8,0,16,7.2,16,16c0,8.8-7.2,16-16,16C13.4,32,6.2,24.8,6.2,16z"/>
<path fill="#FFFFFF" d="M15.6,6.4c3.9-1.7,8.6-1.6,11.1-0.5c0.8,0.4,1.3,0.6,1.6,1c-2.6-0.7-3.8-0.8-6-0.8c-3.1,0.1-7.3,1.3-8.9,2.2
	l-0.7,0.9C15.1,8,19.3,7.1,21.7,7c2.6,0,4.7,0.2,6.6,0.9c-0.1,0.5-0.4,0.7-0.8,1c-7.5-1.3-12,0.2-16,2.9l-0.3,0.9
	c4.5-3.1,10-3.9,15.3-3c-1.9,0.7-4.2,0.8-6.1,1.3c-1.6,0.4-2.5,0.5-4.7,1.2c-2.2,0.7-3.5,1.5-4.3,2.4c-0.4,0.4-0.7,1-0.8,1.5
	c0,0.3,0,0.6,0.1,0.9c0.1,0.3,0.3,0.5,0.5,0.8c-0.3,0.4-0.5,1-0.1,1.7c0.2,0.3,0.6,0.6,1,0.9l-0.1,0.3C12,21,12,21.5,12.2,21.8
	c0.4,0.7,1,1.2,1.8,1.6c0.1,0.6,0.3,1,0.8,1.4c0.9,0.9,3.1,2.5,6.8,2.8c2.8,0.2,4.8-0.7,5.6-1l0.9-0.5c-1.6,0.6-4.2,1-6.4,0.8
	c-3.1-0.3-6-2.3-6.3-2.9c0.1,0.1,0.3,0.1,0.4,0.2c3.7,1.8,8.4,2.7,14.5,0.3l0.5-0.5c-5.5,1.7-10.4,1.7-15.6-1.1
	c0.1-0.3,0.2-0.5,0.4-0.7c1.3,0.6,2.6,1.1,4.2,1.4c1.8,0.3,3.9,0.4,5.6,0.3c1.7-0.1,5.1-0.9,6.7-1.8c0.1-0.1,0.2-0.3,0.4-0.5
	c-3.1,1.1-6.9,1.7-9.1,1.5c-2.2-0.2-4.2-0.4-6.8-1.6c0.5-0.2,1-0.4,1.5-0.5c1.7,0.5,3.4,0.8,5.5,0.9c2,0.1,6.8-0.7,9.8-2.5
	c0.1-0.3,0.2-0.5,0.2-0.5s-4.2,2.2-8.9,2.2c-2.2,0-3.6-0.3-4.6-0.6c2.2-0.4,5-0.7,8.2-1.5c1.6-0.4,3.6-1.3,4.4-2.1
	c0.8-0.7,1.4-1.6,1.1-2.5c0-0.2-0.4-0.8-0.8-1c0.4-0.5,0.4-0.9,0.3-1.3c0-0.3-0.2-0.6-0.3-0.9c-0.3-0.3-0.5-0.6-1-0.9
	c0.1-0.4,0-0.8-0.1-1.1c-0.4-0.7-1.1-1.2-2.3-1.8c-0.1-0.2-0.2-0.6-0.5-0.9c-1.5-1.5-4-2.2-6.1-2.3c-0.1,0-0.2,0-0.3,0
	c-2.4,0-4.4,0.5-5.6,1.1C16.6,5.8,16.1,6.1,15.6,6.4L15.6,6.4z M29.6,8.4c0.5,0.3,1.1,0.8,1.2,1.4c-0.6-0.2-1.1-0.4-1.7-0.6
	C29.2,9,29.5,8.7,29.6,8.4L29.6,8.4z M26.8,10.8c0.6-0.2,1.1-0.5,1.4-0.8c0.8,0.2,1.6,0.5,2.2,0.8c-0.1,0.2-0.7,0.7-0.9,0.7
	c0,0,0,0,0,0C28.6,11.2,27.9,10.9,26.8,10.8L26.8,10.8z M31.8,11.5c0.5,0.4,0.6,0.7,0.4,1.2c-0.3-0.2-0.7-0.4-1.1-0.6
	C31.4,11.9,31.6,11.7,31.8,11.5z M16.4,13.2c2.3-0.7,5-1.2,7.5-1.5c1.7-0.2,2.6,0,4.2,0.4c-4.1,1.1-8.1,1.4-12,2.6
	c-3.1,0.9-3.9,2-3.9,2C10.8,14.8,15.5,13.5,16.4,13.2L16.4,13.2z M18.6,15.5c3.4-0.7,6.6-1.2,7.9-1.5c1.6-0.4,2.7-0.8,3.5-1.1
	c0-0.1,1.3,0.6,1.4,0.7c-0.4,0.4-1,0.7-1.7,0.9c-1.9,0.7-5.5,1.4-7.3,1.7c-1.9,0.3-3.5,0.6-5.5,1.1c-1.2,0.3-2,0.7-2.6,1.1
	c-0.4-0.3-0.7-0.3-1.1-0.7C14.6,16.4,17.5,15.7,18.6,15.5L18.6,15.5z M17.8,18.5c3.3-0.8,6.1-0.9,10.1-2c1.9-0.5,3.3-1,4.2-1.7
	c0.1-0.1,0.3-0.2,0.4-0.3c1.1,1.8-3.2,3.1-6.1,3.8c-1.5,0.3-3.1,0.6-4.6,0.9c-1.9,0.3-2.6,0.5-3.9,0.9c-0.7-0.3-1.3-0.5-1.9-0.9
	C16.4,18.8,17.1,18.6,17.8,18.5L17.8,18.5z M13.2,19.1c-0.1,0.1-0.3,0.2-0.4,0.4c-0.3-0.2-0.6-0.5-0.4-0.9
	C12.7,18.7,12.9,18.9,13.2,19.1L13.2,19.1z M14.6,19.8c0.6,0.3,1.1,0.5,1.7,0.7c-0.4,0.1-0.7,0.3-1,0.5c-0.4-0.2-0.9-0.5-1.3-0.7
	C14.1,20.1,14.4,19.9,14.6,19.8L14.6,19.8z M14.4,21.7c-0.1,0.2-0.2,0.3-0.3,0.5c-0.5-0.4-0.7-0.7-0.7-1.1
	C13.7,21.4,14.1,21.5,14.4,21.7L14.4,21.7z"/>
</svg>
