<svg width="16" height="20" viewBox="0 0 16 20" fill="none" xmlns="http://www.w3.org/2000/svg">
    <circle cx="11.3333" cy="3.33333" r="3.33333" fill="#FFD13B"/>
    <path fill-rule="evenodd" clip-rule="evenodd" d="M0.382087 9.29124C0 9.92588 0 10.7861 0 12.5067V15.4933C0 17.2139 0 18.0741 0.382087 18.7088C0.60645 19.0814 0.918572 19.3936 1.29124 19.6179C1.92588 20 2.78614 20 4.50667 20H11.4933C13.2139 20 14.0741 20 14.7088 19.6179C15.0814 19.3936 15.3936 19.0814 15.6179 18.7088C16 18.0741 16 17.2139 16 15.4933V12.5067C16 10.7861 16 9.92588 15.6179 9.29124C15.3936 8.91857 15.0814 8.60645 14.7088 8.38209C14.0741 8 13.2139 8 11.4933 8H4.50667C2.78614 8 1.92588 8 1.29124 8.38209C0.918572 8.60645 0.60645 8.91857 0.382087 9.29124Z" fill="#248FE0"/>
    <path fill-rule="evenodd" clip-rule="evenodd" d="M7.93345 6.66667H1.40015C1.70899 5.14517 3.05416 4 4.6668 4C6.27944 4 7.62461 5.14517 7.93345 6.66667Z" fill="#FFD13B"/>
    <circle cx="12.0001" cy="14.0001" r="1.33333" fill="white"/>
</svg>
