<svg width="16" height="17" viewBox="0 0 16 17" fill="none" xmlns="http://www.w3.org/2000/svg">
<rect x="3" y="8.5" width="10" height="1.5" fill="#0096C7"/>
<path d="M14 9.25H13.25V10V15.4C13.25 15.6924 13.2494 15.8666 13.2389 15.9957C13.2324 16.0745 13.2239 16.1077 13.2212 16.1165C13.1977 16.1612 13.1612 16.1977 13.1165 16.2212C13.1077 16.2239 13.0745 16.2324 12.9957 16.2389C12.8666 16.2494 12.6924 16.25 12.4 16.25H3.6C3.3076 16.25 3.1334 16.2494 3.00428 16.2389C2.92547 16.2324 2.89234 16.2239 2.88346 16.2212C2.83882 16.1977 2.80234 16.1612 2.77882 16.1165C2.77607 16.1077 2.76757 16.0745 2.76113 15.9957C2.75058 15.8666 2.75 15.6924 2.75 15.4V10V9.25H2H1.6C1.3076 9.25 1.1334 9.24942 1.00428 9.23887C0.925463 9.23243 0.892338 9.22393 0.883461 9.22118C0.838822 9.19766 0.802343 9.16118 0.778823 9.11654C0.776068 9.10766 0.767572 9.07453 0.761133 8.99572C0.750583 8.8666 0.75 8.6924 0.75 8.4V6.6C0.75 6.3076 0.750583 6.1334 0.761133 6.00428C0.767572 5.92547 0.776068 5.89234 0.778823 5.88346C0.802343 5.83882 0.838823 5.80234 0.883463 5.77882C0.892342 5.77607 0.925467 5.76757 1.00428 5.76113C1.1334 5.75058 1.3076 5.75 1.6 5.75H14.4C14.6924 5.75 14.8666 5.75058 14.9957 5.76113C15.0745 5.76757 15.1077 5.77607 15.1165 5.77882C15.1612 5.80234 15.1977 5.83882 15.2212 5.88346C15.2239 5.89234 15.2324 5.92547 15.2389 6.00428C15.2494 6.1334 15.25 6.3076 15.25 6.6V8.4C15.25 8.6924 15.2494 8.8666 15.2389 8.99572C15.2324 9.07453 15.2239 9.10766 15.2212 9.11654C15.1977 9.16118 15.1612 9.19766 15.1165 9.22118C15.1077 9.22393 15.0745 9.23243 14.9957 9.23887C14.8666 9.24942 14.6924 9.25 14.4 9.25H14ZM13.2203 16.1191C13.2203 16.1191 13.2204 16.1185 13.2208 16.1176L13.2203 16.1191ZM13.1191 16.2203C13.1192 16.2203 13.1187 16.2205 13.1176 16.2208L13.1191 16.2203ZM2.88087 16.2203C2.8809 16.2203 2.88143 16.2204 2.88237 16.2208L2.88087 16.2203ZM2.77918 16.1176C2.77957 16.1186 2.77974 16.1191 2.77973 16.1191L2.77918 16.1176ZM0.880875 9.22027C0.880903 9.22026 0.881424 9.22044 0.882357 9.22082L0.880875 9.22027ZM0.779727 9.11912C0.779716 9.11915 0.779525 9.11869 0.779178 9.11764L0.779727 9.11912ZM0.779727 5.88087C0.779738 5.8809 0.779561 5.88144 0.779167 5.88239L0.779727 5.88087ZM0.882389 5.77917C0.881437 5.77956 0.880904 5.77974 0.880875 5.77973L0.882389 5.77917ZM15.1191 5.77973C15.1191 5.77974 15.1186 5.77956 15.1176 5.77918L15.1191 5.77973ZM15.2203 5.88087C15.2203 5.88085 15.2205 5.88131 15.2208 5.88236L15.2203 5.88087ZM15.2203 9.11913C15.2203 9.1191 15.2204 9.11857 15.2208 9.11764L15.2203 9.11913ZM15.1191 9.22027C15.1192 9.22028 15.1187 9.22048 15.1176 9.22082L15.1191 9.22027Z" stroke="#0096C7" stroke-width="1.5"/>
<path d="M3 3.375C3 2.06332 4.06332 1 5.375 1H5.5C6.88071 1 8 2.11929 8 3.5V5.75H5.375C4.06332 5.75 3 4.68668 3 3.375V3.375Z" stroke="#0096C7" stroke-width="1.5"/>
<path d="M13 3.375C13 2.06332 11.9367 1 10.625 1H10.5C9.11929 1 8 2.11929 8 3.5V5.75H10.625C11.9367 5.75 13 4.68668 13 3.375V3.375Z" stroke="#0096C7" stroke-width="1.5"/>
</svg>
