<svg width="15" height="11" viewBox="0 0 15 11" fill="none" xmlns="http://www.w3.org/2000/svg">
<path fill-rule="evenodd" clip-rule="evenodd" d="M13.0525 6.76646C12.7458 6.82431 11.5535 6.99985 10.9789 6.89539C10.7245 6.84846 10.6717 6.57631 10.7825 6.43462C11.2522 5.82585 12.6206 4.58523 13.0845 4.76108C13.4858 4.91277 13.8097 6.62339 13.0525 6.76646ZM3.12502 3.52846C2.97971 3.49877 2.71109 3.33292 2.85377 2.92462C2.8564 2.91738 2.85872 2.91062 2.86043 2.90477C3.05019 2.40631 3.81314 0.841693 4.37609 0.760769C4.41388 0.755077 10.5823 0.755077 10.6206 0.760769C11.1834 0.841693 11.9465 2.40631 12.1358 2.90477C12.1375 2.91062 12.1398 2.91738 12.1424 2.92462C12.2846 3.33292 12.0163 3.49877 11.8706 3.52846C11.2943 3.64508 3.70237 3.64508 3.12502 3.52846ZM4.01762 6.89539C3.44352 6.99985 2.25085 6.82431 1.94397 6.76646C1.18723 6.62339 1.51068 4.91277 1.91221 4.76108C2.37602 4.58523 3.74451 5.82585 4.2142 6.43462C4.32543 6.57631 4.27214 6.84846 4.01762 6.89539ZM14.7871 2.39138C14.5795 2.16662 13.8627 2.156 13.4635 2.29538C13.367 2.32892 13.2617 2.40292 13.1441 2.54092C13.0324 2.67169 12.9571 2.77138 12.8755 2.84677C12.8597 2.81108 12.8471 2.77908 12.836 2.75246C12.5749 2.12062 11.5153 0.138462 10.7335 0.0355384C10.4779 0.00246151 4.51922 0.00246151 4.26268 0.0355384C3.48177 0.138462 2.42311 2.12062 2.16022 2.75246C2.14907 2.77908 2.13683 2.81123 2.12072 2.84708C2.03954 2.77154 1.96379 2.67169 1.85257 2.54092C1.73499 2.40292 1.62949 2.32892 1.53314 2.29538C1.13393 2.156 0.417153 2.16662 0.209571 2.39138C0.040872 2.57354 -0.116673 2.97385 0.368666 3.18738C0.632016 3.30323 1.07382 3.41831 1.47985 3.51015C0.883128 4.05354 0.07077 5.15938 0.617144 7.04308C0.618074 7.08492 0.618538 10.0057 0.618538 10.0057C0.618538 10.1752 0.765705 10.312 0.946951 10.312H3.01874C3.19147 10.312 3.33135 10.1882 3.3453 10.0305V9.24785H11.645L11.649 10.0057C11.649 10.1752 11.7976 10.312 11.9778 10.312H14.0497C14.2314 10.312 14.3794 10.1752 14.3794 10.0057C14.3794 10.0057 14.3794 7.08492 14.3798 7.04308C14.9262 5.15923 14.1134 4.05338 13.5168 3.51C13.9228 3.41831 14.3642 3.30323 14.628 3.18738C15.1132 2.97385 14.9558 2.57354 14.7871 2.39138Z" fill="white"/>
</svg>
