<svg width="20" height="20" viewBox="0 0 20 20" fill="none" xmlns="http://www.w3.org/2000/svg">
  <path fill-rule="evenodd" clip-rule="evenodd" d="M2.42896 14.0355L2.98226 13.4822L11.9749 4.48958C12.1702 4.29432 12.4867 4.29432 12.682 4.48958L15.5104 7.31801C15.7057 7.51327 15.7057 7.82985 15.5104 8.02511L6.51779 17.0178L5.96449 17.5711L2.42896 14.0355Z" fill="#FFD13B"/>
  <path fill-rule="evenodd" clip-rule="evenodd" d="M2.42891 14.0356L5.96445 17.5711L2.41228 18.1631C2.07387 18.2195 1.78048 17.9261 1.83689 17.5877L2.42891 14.0356Z" fill="#1A1A1A"/>
  <path d="M13.3891 3.78251C13.1938 3.58725 13.1938 3.27066 13.3891 3.0754L15.1568 1.30763C15.5474 0.917111 16.1805 0.917111 16.5711 1.30763L18.6924 3.42896C19.0829 3.81948 19.0829 4.45264 18.6924 4.84317L16.9246 6.61094C16.7293 6.8062 16.4128 6.8062 16.2175 6.61094L13.3891 3.78251Z" fill="#248FE0"/>
</svg>
