<svg viewBox="0 0 32 32" fill="none" xmlns="http://www.w3.org/2000/svg">
<path d="M14.835 0.312122C15.5605 -0.104041 16.4395 -0.104041 17.165 0.312122C17.8215 0.688756 18.1191 1.39589 18.2655 1.7606C18.4426 2.20186 18.6257 2.79001 18.8328 3.4553L20.9631 10.2969L27.857 10.2969C28.5274 10.2969 29.12 10.2968 29.5769 10.3363C29.9545 10.3688 30.691 10.4456 31.2371 10.9808C31.8406 11.5722 32.1122 12.4445 31.9571 13.2931C31.8167 14.061 31.2642 14.5749 30.977 14.8329C30.6296 15.145 30.1501 15.5085 29.6077 15.9196L24.0305 20.1479L26.1609 26.9896C26.368 27.6549 26.5512 28.243 26.6565 28.7086C26.7435 29.0934 26.901 29.848 26.582 30.5554C26.2296 31.337 25.5184 31.8762 24.6971 31.9845C23.9538 32.0825 23.3147 31.6929 22.9908 31.4876C22.599 31.2393 22.1196 30.8758 21.5773 30.4646L16 26.2362L10.4228 30.4645C9.88048 30.8757 9.40102 31.2393 9.00916 31.4876C8.6853 31.6929 8.04623 32.0825 7.30292 31.9845C6.48161 31.8762 5.77044 31.337 5.41797 30.5554C5.09897 29.848 5.25653 29.0934 5.34354 28.7086C5.44881 28.243 5.63198 27.6548 5.83915 26.9896L7.96946 20.1479L2.39215 15.9195C1.84983 15.5084 1.37039 15.145 1.02297 14.8329C0.735801 14.5749 0.183265 14.061 0.0428766 13.2931C-0.112246 12.4445 0.159393 11.5722 0.762865 10.9808C1.30902 10.4456 2.04547 10.3688 2.42311 10.3363C2.88001 10.2968 3.47264 10.2969 4.14299 10.2969L11.0369 10.2969L13.1672 3.45531C13.3743 2.79001 13.5574 2.20186 13.7345 1.7606C13.8809 1.39589 14.1785 0.688756 14.835 0.312122Z" fill="#EBECED"/>
</svg>
