<svg width="17" height="16" viewBox="0 0 17 16" fill="none" xmlns="http://www.w3.org/2000/svg">
<path d="M9.11266 1.95941L9.11264 1.95937C9.00092 1.61547 8.91588 1.35557 8.83817 1.17004L9.52112 0.883996L8.83817 1.17004C8.80318 1.08651 8.76867 1.01042 8.72154 0.940785C8.67549 0.872745 8.6325 0.834216 8.59444 0.813291C8.44094 0.728903 8.25494 0.728903 8.10144 0.813291C8.06337 0.834216 8.02038 0.872746 7.97433 0.940785C7.92721 1.01042 7.89269 1.08651 7.85771 1.17004C7.78 1.35557 7.69495 1.61548 7.58323 1.95938L7.58322 1.95942L6.48307 5.34535L6.48301 5.34551L6.47168 5.38037L6.30326 5.89832L5.75861 5.89845L5.72195 5.89846H5.72178L2.16159 5.89845H2.16155C1.79996 5.89844 1.5265 5.89901 1.32604 5.91558C1.23579 5.92304 1.15275 5.93235 1.07196 5.95565C0.993025 5.97842 0.943096 6.0074 0.911432 6.03714C0.78374 6.15705 0.726263 6.33394 0.759086 6.50601C0.767225 6.54868 0.790584 6.60147 0.841064 6.66629C0.892726 6.73263 0.954428 6.78897 1.02306 6.84805C1.17549 6.97929 1.39639 7.14048 1.68893 7.353L1.68896 7.35302L4.56922 9.44565L4.56936 9.44575L4.59902 9.46731L5.03957 9.78754L4.87138 10.3056L4.86006 10.3404L4.86001 10.3406L3.76125 13.7222L3.76124 13.7222L3.75985 13.7266L3.75984 13.7266L3.75983 13.7266C3.64808 14.0705 3.56412 14.3307 3.51793 14.5265C3.49714 14.6146 3.48034 14.6965 3.47753 14.7805C3.4748 14.8626 3.48693 14.9191 3.50542 14.9584C3.58001 15.1169 3.73049 15.2262 3.90427 15.2481C3.94736 15.2536 4.00479 15.2477 4.08204 15.2197C4.1611 15.1911 4.23374 15.1498 4.31114 15.1028C4.48307 14.9984 4.70466 14.8381 4.9972 14.6255L4.99723 14.6255L7.87744 12.5329L7.87759 12.5328L7.90725 12.5112L8.34794 12.1912L8.78862 12.5112L8.81829 12.5328L8.81844 12.5329L11.6987 14.6255L11.6987 14.6256C11.9913 14.8381 12.2128 14.9984 12.3847 15.1028C12.4621 15.1498 12.5348 15.1911 12.6138 15.2197C12.6911 15.2477 12.7485 15.2536 12.7916 15.2481C12.9654 15.2262 13.1159 15.1169 13.1905 14.9584C13.2089 14.9191 13.2211 14.8626 13.2183 14.7805C13.2155 14.6965 13.1987 14.6146 13.1779 14.5265C13.1321 14.3323 13.0491 14.0746 12.9387 13.7347L12.9386 13.7346L9.11266 1.95941ZM9.11266 1.95941L10.2128 5.34535L10.2129 5.34552L10.2242 5.38038L10.3926 5.89832L10.9373 5.89845L10.9739 5.89846H10.9741L14.5343 5.89845H14.5343C14.8959 5.89844 15.1694 5.89901 15.3698 5.91558C15.4601 5.92304 15.5431 5.93235 15.6239 5.95565C15.7029 5.97842 15.7528 6.0074 15.7844 6.03714L16.2572 5.53368L15.7844 6.03714C15.9121 6.15705 15.9696 6.33394 15.9368 6.50601C15.9287 6.54868 15.9053 6.60147 15.8548 6.66629C15.8032 6.73263 15.7415 6.78897 15.6728 6.84805C15.5204 6.97929 15.2995 7.1405 15.0069 7.35303L15.0069 7.35305L12.1267 9.44565L12.1265 9.44576L12.0969 9.46731L11.6563 9.78754L11.8245 10.3055L11.8358 10.3404L11.8359 10.3406L12.936 13.7266L12.9361 13.7267L9.11266 1.95941Z" stroke="#FFBB03" stroke-width="1.5"/>
</svg>
