<svg xmlns="http://www.w3.org/2000/svg" width="29" height="30" viewBox="0 0 29 30">
    <g fill="none" fill-rule="nonzero" transform="translate(-1.42 -1.42)">
        <rect width="11.062" height="20.543" x="2" y="9.901" fill="#2898BC" rx=".889"/>
        <path fill="#FFBB03" d="M25.061 12.708c-.755 0-1.761.034-3.023.103.81-2.828 1.241-5.028 1.282-6.628C23.32 3.578 22.22 2 19.994 2c-2.55 0-2.216 3.127-5.353 7.088v20.485c2 .565 3.795.871 5.353.871 4.085 0 7.02-1.194 7.754-3.59.615-2.011 1.948-9.238 1.906-10.366.001-2.444-1.816-3.78-4.593-3.78"/>
        <path fill="#FFBB03" d="M25.061 12.708c-.755 0-1.761.034-3.023.103.81-2.828 1.241-5.028 1.282-6.628C23.32 3.578 22.22 2 19.994 2c-2.55 0-2.216 3.127-5.353 7.088v2.463c2.23-2.326 3.234-4.461 3.98-6.049.827-1.762.957-1.829 1.373-1.829.61 0 1.746 0 1.746 2.465-.035 1.412-.444 3.493-1.214 6.189l-.65 2.276 2.243-.12c1.231-.068 2.22-.101 2.942-.101 1.026 0 1.873.226 2.387.636.268.214.625.6.625 1.529.007.982-1.245 7.882-1.83 9.791-.466 1.523-2.801 2.433-6.25 2.433-1.488 0-3.283-.311-5.352-.925v1.727c2 .565 3.795.871 5.353.871 4.085 0 7.02-1.194 7.754-3.59.615-2.011 1.948-9.238 1.906-10.366.001-2.444-1.816-3.78-4.593-3.78"/>
    </g>
</svg>
