<?xml version="1.0" encoding="UTF-8"?>
<svg version="1.1" viewBox="0 0 18 24" xmlns="http://www.w3.org/2000/svg">
<defs>
<radialGradient id="a" cy="87.699%" r="79.739%" gradientTransform="translate(.5 .87699) scale(1 .77419) rotate(95.816) scale(1 .47752) translate(-.5 -.87699)">
<stop stop-color="#FFDD82" offset="0"/>
<stop stop-color="#FFBA00" offset=".5823"/>
<stop stop-color="#FF5F5F" offset="1"/>
</radialGradient>
</defs>
<g fill="none" fill-rule="evenodd">
<g transform="translate(-1152 -462)" fill="url(#a)" fill-rule="nonzero">
<g transform="translate(1152 462)">
<path d="m8.3702 23.208c-4.505 0-7.4707-3.2463-7.3717-3.4742 0.084137-0.1938 1.59 0.89265 1.59 0.4344 0-0.7085-2.44-2.1937-2.44-5.1516 0-2.5446 1.5537-4.735 1.9816-4.735 0.17957 0-0.41833 2.8573 1.6535 2.8573 1.0342 0 0.61232-1.7267 1.0342-3.6972 0.17737-0.82835 0.49118-1.4043 0.78059-2.0483 0.30846-0.6864 0.58918-1.4163 0.64666-1.48 0.093707-0.10392 0.76161 0.38208 1.4605-0.26898 1.1577-1.0785 0.0023869-4.6275 0.32202-4.8004 0.087065-0.047079 0.83075 0.56532 1.8251 1.353 1.8681 1.4799 4.4926 3.8904 4.407 5.9012-0.12746 2.9954-0.13406 3.8264 0.74725 3.8264 1.1803 0 0.80133-1.702 1.037-1.702 0.23566 0 1.4204 3.1266 1.4204 4.7036 0 3.4505-2.7466 4.7133-2.7466 5.2419 0 0.4491 0.91487 0.079254 0.99051 0.27393 0.075635 0.19467-3.1822 2.7658-7.338 2.7658zm-7.1795-13.243c-0.14017 0-0.16773-0.47153-0.16371-0.75839 0.0035681-0.25458 0.055565-0.52172 0.14017-0.78323 0.15394-0.47583 0.46263-0.89623 0.68311-1.1136 0.66681-0.65753 0.71732-1.3411 0.91846-1.3411s0.13626 1.5643-0.25165 2.3875c-0.38791 0.82327-1.1862 1.6089-1.3264 1.6089z"/>
</g>
</g>
</g>
</svg>
