<?xml version="1.0" encoding="UTF-8"?>
<svg version="1.1" viewBox="0 0 38 37" xmlns="http://www.w3.org/2000/svg" xmlns:xlink="http://www.w3.org/1999/xlink">
<defs>
<path id="a" d="m21.069 33.489-8.4136 4.4233c-0.97769 0.514-2.1869 0.13811-2.7009-0.83958-0.20468-0.38932-0.27531-0.83526-0.20095-1.2688l1.6069-9.3687c0.11128-0.64879-0.10382-1.3108-0.57519-1.7703l-6.8068-6.635c-0.79097-0.771-0.80715-2.0372-0.036149-2.8282 0.30702-0.31497 0.7093-0.51994 1.1446-0.58319l9.4067-1.3669c0.65142-0.094657 1.2146-0.5038 1.5059-1.0941l4.2068-8.524c0.48884-0.99051 1.6881-1.3972 2.6786-0.90834 0.39443 0.19466 0.71368 0.51392 0.90834 0.90834l4.2068 8.524c0.29132 0.59029 0.85446 0.99943 1.5059 1.0941l9.4067 1.3669c1.0931 0.15884 1.8505 1.1737 1.6916 2.2668-0.063249 0.43527-0.26822 0.83756-0.58319 1.1446l-6.8068 6.635c-0.47137 0.45947-0.68647 1.1215-0.57519 1.7703l1.6069 9.3687c0.18672 1.0887-0.54445 2.1226-1.6331 2.3093-0.43352 0.074354-0.87945 0.0037243-1.2688-0.20095l-8.4136-4.4233c-0.58265-0.30632-1.2787-0.30632-1.8614 0z"/>
</defs>
<g fill="none" fill-rule="evenodd">
<g transform="translate(-910 -948)">
<g transform="translate(907 946)">
<mask fill="white">
<use xlink:href="#a"/>
</mask>
<use fill="#FFBB03" fill-rule="nonzero" xlink:href="#a"/>
</g>
</g>
</g>
</svg>
