<?xml version="1.0" encoding="UTF-8"?>
<svg width="53px" height="20px" viewBox="0 0 53 20" version="1.1" xmlns="http://www.w3.org/2000/svg" xmlns:xlink="http://www.w3.org/1999/xlink">
    <!-- Generator: Sketch 55.2 (78181) - https://sketchapp.com -->
    <title>РН Банк</title>
    <desc>Created with Sketch.</desc>
    <g id="14.-Credit-comparing" stroke="none" stroke-width="1" fill="none" fill-rule="evenodd">
        <g id="14.2-Credits-1440-i-02" transform="translate(-1018.000000, -894.000000)" fill-rule="nonzero">
            <g id="РН-Банк" transform="translate(1018.000000, 894.000000)">
                <g id="Layer_1" transform="translate(0.000000, 16.583006)" fill="#F68C28">
                    <rect id="Rectangle" x="0.03922071" y="0" width="52.5949721" height="2.98701299"></rect>
                </g>
                <g id="Layer_3" transform="translate(22.617276, 0.134821)" fill="#A9ACAE">
                    <path d="M25.3757994,3.47838672 L25.3757994,7.32079065 L25.7026386,7.32079065 L28.487309,3.47838672 L30.1215053,3.47838672 L26.905407,7.49605819 C28.0951019,7.6443615 28.8141483,8.60159196 29.3893853,10.192482 C29.5854889,10.7722131 29.8469603,11.6350687 30.1868731,12.3496211 L28.761854,12.3496211 C28.5657504,11.9586396 28.304279,11.2710515 28.0689548,10.529535 C27.5590855,9.10043036 26.8792599,8.43980653 25.6241972,8.43980653 L25.3627258,8.43980653 L25.3627258,12.3361389 L24.0292216,12.3361389 L24.0292216,3.47838672 L25.3757994,3.47838672 Z" id="Path"></path>
                    <path d="M12.4460386,12.3496211 L12.3414501,11.2306052 L12.2891558,11.2306052 C11.8708016,11.9316754 11.0863874,12.5518528 10.0274282,12.5518528 C8.5370412,12.5518528 7.76570058,11.2845336 7.76570058,10.0037323 C7.76570058,7.86007541 9.34760254,6.68713105 12.2107144,6.70061317 L12.2107144,6.5118635 C12.2107144,5.78382907 12.040758,4.46258141 10.5372974,4.46258141 C9.8443982,4.46258141 9.13842542,4.71874167 8.61548262,5.12320524 L8.31479051,4.05811784 C8.9292483,3.58624367 9.80517749,3.27615493 10.7464745,3.27615493 C13.0082021,3.27615493 13.5572921,5.12320524 13.5572921,6.90284496 L13.5572921,10.2194462 C13.5572921,10.987927 13.5834392,11.7429257 13.6749542,12.3496211 L12.4460386,12.3496211 Z M12.2368615,7.81962905 C10.7726217,7.77918269 9.11227828,8.08927143 9.11227828,9.81498267 C9.11227828,10.8531058 9.68751536,11.3519442 10.3804146,11.3519442 C11.3478588,11.3519442 11.949243,10.6239098 12.1714937,9.86891115 C12.2107144,9.70712572 12.2499351,9.51837605 12.2499351,9.35659062 L12.2499351,7.81962905 L12.2368615,7.81962905 Z" id="Shape"></path>
                    <path d="M5.83081222,0 L5.83081222,1.33472979 L1.38579842,1.33472979 L1.38579842,4.65133107 C1.71263767,4.5974026 2.31402189,4.55695624 2.65393471,4.55695624 C3.63445246,4.55695624 4.58882307,4.8131165 5.30786942,5.3793655 C6.09228362,5.98606086 6.61522642,6.95677343 6.61522642,8.39936017 C6.61522642,9.55882241 6.28838717,10.4351601 5.76544437,11.0688197 C4.92873589,12.0530144 3.54293747,12.4439959 2.13099191,12.4439959 C1.20276844,12.4439959 0.49679566,12.3765853 0.05229428,12.2956926 L0.05229428,0 L5.83081222,0 Z M1.38579842,11.1227482 C1.68649053,11.1901588 2.03947692,11.2171231 2.49705187,11.2171231 C3.32068678,11.2171231 4.15739526,10.9070343 4.66726449,10.2598926 C5.02025088,9.81498267 5.229428,9.22176943 5.229428,8.43980653 C5.229428,7.48257607 4.88951518,6.84891648 4.39271952,6.41748867 C3.85670315,5.97257874 3.17687751,5.79731119 2.44475759,5.79731119 C2.14406548,5.79731119 1.72571124,5.83775755 1.38579842,5.86472179 L1.38579842,11.1227482 Z" id="Shape"></path>
                    <polygon id="Path" points="17.0087146 3.47838672 17.0087146 7.05114827 20.5124313 7.05114827 20.5124313 3.47838672 21.8459355 3.47838672 21.8459355 12.3496211 20.5124313 12.3496211 20.5124313 8.33194958 17.0087146 8.33194958 17.0087146 12.3496211 15.6752104 12.3496211 15.6752104 3.47838672"></polygon>
                </g>
                <g id="Layer_2" transform="translate(0.000000, -0.000000)" fill="#555D63">
                    <path d="M0.05229428,0.296606619 C0.77134063,0.14830331 1.77800552,0.0404463572 3.20302465,0.0404463572 C4.64111735,0.0404463572 5.66085581,0.364017214 6.35375502,1.02464105 C7.00743352,1.64481852 7.4519349,2.66945957 7.4519349,3.88285029 C7.4519349,5.096241 7.11202208,6.12088205 6.51063786,6.80847012 C5.71315009,7.7117721 4.53652879,8.10275355 3.16380394,8.10275355 C2.86311183,8.10275355 2.58856686,8.08927143 2.36631617,8.04882508 L2.36631617,12.4709601 L0.05229428,12.4709601 L0.05229428,0.296606619 Z M2.3532426,5.90516815 C2.54934615,5.95909662 2.79774398,5.97257874 3.1376568,5.97257874 C4.37964595,5.97257874 5.13791301,5.21758007 5.13791301,3.963743 C5.13791301,2.831245 4.48423451,2.14365693 3.32068678,2.14365693 C2.85003826,2.14365693 2.52319901,2.19758541 2.3532426,2.25151388 L2.3532426,5.90516815 Z" id="Shape"></path>
                    <polygon id="Path" points="11.2563438 0.134821191 11.2563438 4.8805271 15.0868998 4.8805271 15.0868998 0.134821191 17.4139952 0.134821191 17.4139952 12.4844422 15.0868998 12.4844422 15.0868998 7.32079065 11.2563438 7.32079065 11.2563438 12.4844422 8.91617473 12.4844422 8.91617473 0.134821191"></polygon>
                </g>
            </g>
        </g>
    </g>
</svg>