<?xml version="1.0" encoding="UTF-8"?>
<svg width="32px" height="9px" viewBox="0 0 32 9" version="1.1" xmlns="http://www.w3.org/2000/svg" xmlns:xlink="http://www.w3.org/1999/xlink">
    <!-- Generator: Sketch 55.2 (78181) - https://sketchapp.com -->
    <title>logo</title>
    <desc>Created with Sketch.</desc>
    <defs>
        <linearGradient x1="31.2981329%" y1="40.0498192%" x2="68.7018671%" y2="59.9501808%" id="linearGradient-1">
            <stop stop-color="#00A04A" offset="0%"></stop>
            <stop stop-color="#00A096" offset="58.0392%"></stop>
            <stop stop-color="#00A0E3" offset="100%"></stop>
        </linearGradient>
    </defs>
    <g id="14.-Credit-comparing" stroke="none" stroke-width="1" fill="none" fill-rule="evenodd">
        <g id="14.-Credit-comparing-logos" transform="translate(-46.000000, -1138.000000)" fill-rule="nonzero">
            <g id="Сетелем-банк" transform="translate(40.000000, 1120.000000)">
                <g id="logo" transform="translate(6.000000, 18.000000)">
                    <polygon id="Path" fill="url(#linearGradient-1)" points="31.8629136 8.84232629 21.9399767 8.84232629 21.9399767 5.89881237 31.8629136 5.89881237"></polygon>
                    <g id="Group" fill="#2B2A29">
                        <path d="M9.28145627,5.01622502 C8.89347818,5.35552842 8.34161138,5.5162421 7.79821114,5.5162421 C6.54785183,5.5162421 5.71142011,4.67692162 5.71142011,3.40897442 C5.71142011,2.23917472 6.48754122,1.30153596 7.76379506,1.30153596 C8.76417048,1.30153596 9.6006022,2.04259508 9.6006022,3.16776159 C9.6006022,3.41779859 9.58339416,3.5696881 9.54012666,3.72146374 L6.7375801,3.72146374 C6.82395017,4.32862327 7.28944691,4.65904557 7.90184423,4.65904557 C8.37608243,4.65904557 8.77274701,4.48045585 8.99694634,4.29292809 L9.28151125,5.01616809 L9.28145627,5.01622502 Z M6.70316402,3.03386199 L6.70316402,3.03386199 L8.60896825,3.03386199 C8.6174898,2.54278294 8.28982232,2.15873248 7.72074747,2.15873248 C7.12572312,2.15873248 6.80663217,2.50703084 6.70316402,3.03386199 L6.70316402,3.03386199 Z" id="Shape"></path>
                        <polygon id="Path" points="9.95383434 1.39979731 13.4894544 1.39979731 13.4894544 2.42670247 12.2218871 2.42670247 12.2218871 5.4180946 11.2302531 5.4180946 11.2302531 2.42670247 9.95383434 2.42670247"></polygon>
                        <path d="M17.4043111,5.01622502 C17.016333,5.35552842 16.4644112,5.5162421 15.921066,5.5162421 C14.6707617,5.5162421 13.8343299,4.67692162 13.8343299,3.40897442 C13.8343299,2.23917472 14.610451,1.30153596 15.8866499,1.30153596 C16.8870253,1.30153596 17.723457,2.04259508 17.723457,3.16776159 C17.723457,3.41779859 17.706249,3.5696881 17.6629815,3.72146374 L14.8604349,3.72146374 C14.946805,4.32862327 15.4123567,4.65904557 16.0246991,4.65904557 C16.4989373,4.65904557 16.8956019,4.48045585 17.1198012,4.29292809 L17.4043661,5.01616809 L17.4043111,5.01622502 Z M14.8260189,3.03386199 L14.8260189,3.03386199 L16.7318231,3.03386199 C16.7403446,2.54278294 16.4126772,2.15873248 15.8436023,2.15873248 C15.2486329,2.15873248 14.929487,2.50703084 14.8260738,3.03386199 L14.8260189,3.03386199 Z" id="Shape"></path>
                        <path d="M20.9482878,2.38656675 L19.9221828,2.38656675 L19.8962883,2.81513654 C19.706615,5.00284645 19.1891643,5.45823032 18.1456863,5.45823032 L18.0594811,4.45813925 C18.3958351,4.49377749 18.8528103,4.16346905 18.9390154,2.60973274 L18.999491,1.35966159 L21.9399218,1.35966159 L21.9399218,5.37790195 L20.9482328,5.37790195 L20.9482328,2.38650982 L20.9482878,2.38656675 Z" id="Path"></path>
                        <path d="M26.3720093,5.01622502 C25.9840312,5.35552842 25.4321644,5.5162421 24.8887642,5.5162421 C23.6384048,5.5162421 22.8019731,4.67692162 22.8019731,3.40897442 C22.8019731,2.23917472 23.5780942,1.30153596 24.8543481,1.30153596 C25.8547235,1.30153596 26.6911552,2.04259508 26.6911552,3.16776159 C26.6911552,3.41779859 26.6739472,3.5696881 26.6306797,3.72146374 L23.8281331,3.72146374 C23.9145032,4.32862327 24.3800549,4.65904557 24.9923972,4.65904557 C25.4665805,4.65904557 25.8633,4.48045585 26.0874444,4.29292809 L26.3720093,5.01616809 L26.3720093,5.01622502 Z M23.7936621,3.03386199 L23.7936621,3.03386199 L25.6994663,3.03386199 C25.7079878,2.54278294 25.3803204,2.15873248 24.8112455,2.15873248 C24.2162212,2.15873248 23.8971302,2.50703084 23.7936621,3.03386199 L23.7936621,3.03386199 Z" id="Shape"></path>
                        <polygon id="Path" points="27.492896 1.39979731 28.3896383 1.39979731 29.7091596 3.07849519 30.959464 1.39979731 31.8305317 1.39979731 31.8305317 5.4180946 30.8386778 5.4180946 30.8386778 2.96235778 29.6917867 4.46263672 29.6660571 4.46263672 28.4845849 2.96235778 28.4845849 5.4180946 27.492896 5.4180946"></polygon>
                        <path d="M4.82270454,4.96003501 C4.4452272,5.3611645 3.91815537,5.61057527 3.33456639,5.61057527 C2.9342183,5.61057527 2.56047946,5.49307154 2.24325775,5.28994495 C2.21428447,5.27315057 2.18514625,5.25493293 2.15584311,5.23403959 C2.15127995,5.23022527 1.89480868,5.03905399 1.8366422,4.97409675 C1.76599577,4.89524856 1.59006692,4.62779095 1.59006692,4.62779095 C1.58869248,4.62557067 1.58759292,4.62340733 1.58627346,4.62118705 C1.37790773,4.28586876 1.25651682,3.88707341 1.25651682,3.4586744 C1.25651682,2.27020162 2.18690554,1.30677353 3.33462137,1.30677353 C3.90847928,1.30677353 4.42801916,1.54764478 4.80406708,1.93704667 L5.69256274,1.01699932 C5.08912679,0.392134533 4.25544396,0.00563607996 3.33462137,0.00563607996 C1.49297619,0.00563607996 -1.13686838e-13,1.55157296 -1.13686838e-13,3.4586744 C-1.13686838e-13,5.36571891 1.49292121,6.91171272 3.33462137,6.91171272 C4.26517502,6.91171272 5.10655474,6.51684554 5.71147509,5.88031009 L4.82275952,4.96003501 L4.82270454,4.96003501 Z" id="Path"></path>
                    </g>
                    <g id="Group" transform="translate(22.661835, 6.398943)" fill="#FEFEFE">
                        <path d="M0.683923399,0.309016586 C1.07190149,0.309016586 1.36465809,0.585184504 1.36465809,1.0061826 C1.36465809,1.41175263 1.07190149,1.70334861 0.683923399,1.70334861 C0.296055265,1.70334861 0.00500297663,1.42718069 0.00500297663,1.0061826 C0.00500297663,0.614104995 0.28291558,0.309016586 0.683923399,0.309016586 Z M0.683923399,1.48132122 L0.683923399,1.48132122 C0.958097514,1.48132122 1.12226112,1.27272933 1.12226112,1.00623953 C1.12226112,0.726200363 0.930168809,0.531157838 0.683923399,0.531157838 C0.434049456,0.531157838 0.247509899,0.726200363 0.247509899,1.00623953 C0.247509899,1.27660058 0.43960221,1.48132122 0.683923399,1.48132122 Z" id="Shape"></path>
                        <polygon id="Path" points="2.45591175 1.10478553 1.85907313 1.10478553 1.85907313 1.68217061 1.62970589 1.68217061 1.62970589 0.330308444 1.85907313 0.330308444 1.85907313 0.882644279 2.45591175 0.882644279 2.45591175 0.330308444 2.68346472 0.330308444 2.68346472 1.68217061 2.45591175 1.68217061"></polygon>
                        <path d="M3.81573179,0.552392766 L3.43523068,0.552392766 L3.40917122,0.807325756 C3.33269715,1.59335965 3.16298079,1.72082615 2.90562987,1.68217061 L2.9112376,1.44653693 C3.01195686,1.46008629 3.1443983,1.41568081 3.20223491,0.600612561 L3.22087237,0.330308444 L4.04333974,0.330308444 L4.04333974,1.68217061 L3.81578677,1.68217061 L3.81578677,0.552335836 L3.81573179,0.552392766 Z" id="Path"></path>
                        <path d="M4.78949797,0.326437197 L4.9909365,0.326437197 L5.54296824,1.68217061 L5.29864705,1.68217061 L5.16246713,1.33643411 L4.60488263,1.33643411 L4.46870271,1.68217061 L4.23746623,1.68217061 L4.78949797,0.326437197 L4.78949797,0.326437197 Z M4.69251719,1.11440672 L4.69251719,1.11440672 L5.07483257,1.11440672 L4.8846095,0.633461229 L4.69251719,1.11440672 Z" id="Shape"></path>
                        <path d="M5.73896397,1.68217061 L5.73896397,0.330308444 L5.96833121,0.330308444 L5.96833121,1.29208556 L6.65280439,0.330308444 L6.85424292,0.330308444 L6.85424292,1.68217061 L6.62487568,1.68217061 L6.62487568,0.722329116 L5.9404025,1.68217061 L5.73896397,1.68217061 Z M6.1604785,0.00199255352 L6.1604785,0.00199255352 C6.17537747,0.0772541465 6.22573711,0.113974061 6.31903437,0.113974061 C6.40293044,0.113974061 6.46076705,0.0849966402 6.46818905,0.00199255352 L6.68271229,0.00199255352 C6.67715954,0.168057657 6.52415641,0.278160471 6.31903437,0.278160471 C6.09521989,0.278160471 5.95903997,0.166122033 5.94601024,0.00199255352 L6.16042352,0.00199255352 L6.1604785,0.00199255352 Z" id="Shape"></path>
                        <polygon id="Path" points="8.04247736 1.10478553 7.44569371 1.10478553 7.44569371 1.68217061 7.2162715 1.68217061 7.2162715 0.330308444 7.44569371 0.330308444 7.44569371 0.882644279 8.04247736 0.882644279 8.04247736 0.330308444 8.2700853 0.330308444 8.2700853 1.68217061 8.04247736 1.68217061"></polygon>
                    </g>
                </g>
            </g>
        </g>
    </g>
</svg>