<?xml version="1.0" encoding="UTF-8"?>
<svg width="20px" height="20px" viewBox="0 0 20 20" version="1.1" xmlns="http://www.w3.org/2000/svg" xmlns:xlink="http://www.w3.org/1999/xlink">
    <!-- Generator: Sketch 55.2 (78181) - https://sketchapp.com -->
    <title>Юникредит</title>
    <desc>Created with Sketch.</desc>
    <g id="14.-Credit-comparing" stroke="none" stroke-width="1" fill="none" fill-rule="evenodd">
        <g id="14.2-Credits-1440-i-02" transform="translate(-626.000000, -894.000000)">
            <g id="Юникредит" transform="translate(626.000000, 894.000000)">
                <g id="Group">
                    <path d="M10.4089903,5.16460561 C10.414839,5.15625 10.4206876,5.14705882 10.4273719,5.13786765 C10.5819443,4.9131016 10.5176087,4.7459893 10.4140034,4.65658422 C10.3488324,4.59893048 8.798095,3.65975936 8.798095,3.65975936 C8.68613444,3.58455882 8.61177257,3.45671791 8.61177257,3.31049465 C8.61177257,3.08071524 8.74963446,2.90691845 9.0621214,2.82085561 C10.0589046,2.54679144 13.5639387,2.40307487 14.7553996,2.40307487 C15.1681497,2.40307487 15.8800184,2.40140374 16.5191962,2.4197861 L16.4907883,2.39221257 C14.7445377,0.900735294 12.4769186,0 10.0004178,0 C4.47675147,0 0,4.47610294 0,10 C0,12.4281417 0.864770021,14.653242 2.30354681,16.3861965 C3.5601788,14.578877 6.66165351,10.1261698 7.34093663,9.21624332 C8.12382504,8.16761364 9.91018089,5.83639706 10.211806,5.44117647 L10.2268455,5.42279412 L10.4089903,5.16460561 Z" id="Path" fill="#E2001A"></path>
                    <path d="M3.9027447,17.9269719 C5.59050842,19.2271056 7.70439069,20 10.0004178,20 C15.5232485,20 20,15.5230615 20,10 C20,8.32804144 19.5897564,6.75300802 18.8653549,5.36848262 L18.8661904,5.36931818 C19.2104274,5.03760027 19.6073025,4.51286765 19.3466182,3.85444519 C19.2647366,3.6589238 18.8762167,3.21440508 18.7759535,3.10661765 L18.7901575,3.14505348 C19.0332957,3.87951203 18.5520324,4.33990642 18.2061244,4.65240642 C18.0164599,4.82536765 15.4772946,7.21925134 12.4994778,9.82286096 C9.87425325,12.1181484 6.93904834,14.4535428 5.2379162,15.7269385 C2.84580357,17.5167112 2.38041526,17.7774064 2.38041526,17.7774064 C2.31691524,17.8116644 2.21163889,17.8409091 2.13477044,17.8409091 C1.98855329,17.8409091 1.86155324,17.7757353 1.78134269,17.6704545 L1.77883611,17.6679479 C1.76630321,17.6988636 1.76212558,17.7256016 1.77298743,17.743984 C2.02949409,18.1600936 2.45477712,18.6405414 2.70292852,18.6405414 C2.77979697,18.6405414 2.88590884,18.6112968 2.94940886,18.5778743 C2.94940886,18.5778743 3.13740235,18.4734291 3.9027447,17.9269719 Z" id="Path" fill="#E2001A"></path>
                    <path d="M10.4231942,5.13786765 C10.5769311,4.91393717 10.5125956,4.74682487 10.4098258,4.65658422 C10.3446547,4.59976604 8.79391737,3.65975936 8.79391737,3.65975936 C8.6819568,3.58455882 8.60759494,3.45755348 8.60759494,3.31133021 C8.60759494,3.08071524 8.74545682,2.90775401 9.05794377,2.82085561 C10.0538915,2.54679144 13.559761,2.40382008 14.7503864,2.40382008 C15.3126958,2.40382008 16.4264528,2.39973262 17.1592096,2.44819519 C17.9813678,2.50167112 18.6055061,2.67212567 18.7600785,3.06985294 C19.0650457,3.84943182 18.5612232,4.33071524 18.2036178,4.6549131 C18.0147888,4.82703877 15.4756235,7.22092246 12.4978067,9.82453209 C9.87258219,12.1198195 6.93654176,14.4543783 5.23624514,15.7286096 C2.84413251,17.5183824 2.3787442,17.7790775 2.3787442,17.7790775 C2.31524418,17.8133356 2.20996783,17.8425802 2.13226386,17.8425802 C1.88494799,17.8425802 1.69027029,17.6529078 1.69027029,17.4039104 C1.69027029,17.3103275 1.7186782,17.221758 1.76880979,17.1507353 C1.76880979,17.1507353 6.47867318,10.3643048 7.33675899,9.21624332 C8.19400927,8.06985294 10.2510757,5.38435829 10.2510757,5.38435829 C10.2510757,5.38435829 10.275306,5.35427807 10.4231942,5.13786765 Z" id="Path" fill="#FEFEFE"></path>
                </g>
            </g>
        </g>
    </g>
</svg>